<svg width="26" height="28" viewBox="0 0 26 28" fill="none" xmlns="http://www.w3.org/2000/svg">
<path d="M2.6875 12.1019C1.66062 12.1019 0.828169 12.9343 0.828169 13.9612C0.828169 14.9881 1.66062 15.8205 2.6875 15.8205V12.1019ZM25.2651 15.2759C25.9912 14.5498 25.9912 13.3725 25.2651 12.6464L13.4324 0.813725C12.7063 0.0876102 11.529 0.0876102 10.8029 0.813725C10.0768 1.53984 10.0768 2.7171 10.8029 3.44322L21.3209 13.9612L10.8029 24.4791C10.0768 25.2053 10.0768 26.3825 10.8029 27.1086C11.529 27.8348 12.7063 27.8348 13.4324 27.1086L25.2651 15.2759ZM2.6875 15.8205L23.9504 15.8205V12.1019L2.6875 12.1019V15.8205Z" fill="#1C8035"/>
</svg>
