<svg width="384" height="52" viewBox="0 0 384 52" fill="none" xmlns="http://www.w3.org/2000/svg">
<path d="M28.6412 30.1416V34.2927H0.742676V31.0497L21.7298 5.0474H1.07982V0.89636H28.0252V4.13932L7.13541 30.1416H28.6412Z" fill="#1C8035"/>
<path d="M63.7429 0.89636V34.2927H58.971V19.4074H39.7993V34.2927H35.0274V0.89636H39.7993V15.2563H58.971V0.89636H63.7429Z" fill="#1C8035"/>
<path d="M77.2869 25.9452L73.6172 34.2927H68.7027L83.8223 0.89636H88.5422L103.707 34.2927H98.7019L95.0322 25.9452H77.2869ZM93.3595 22.1315L86.1563 5.76733L78.9531 22.1315H93.3595Z" fill="#1C8035"/>
<path d="M137.376 0.89636V34.2927H133.466L113.439 9.38649V34.2927H108.667V0.89636H112.577L132.604 25.8026V0.89636H137.376Z" fill="#1C8035"/>
<path d="M150.926 25.9452L147.257 34.2927H142.342L157.462 0.89636H162.182L177.347 34.2927H172.341L168.672 25.9452H150.926ZM166.999 22.1315L159.796 5.76733L152.593 22.1315H166.999Z" fill="#1C8035"/>
<path d="M222.174 19.9068C223.289 21.3207 223.84 23.1108 223.84 25.2772C223.84 28.1699 222.751 30.4011 220.572 31.9577C218.394 33.5144 215.223 34.2927 211.061 34.2927H195.131V0.89636H210.108C213.92 0.89636 216.87 1.66169 218.958 3.18589C221.039 4.7101 222.083 6.83102 222.083 9.52919C222.083 11.2804 221.681 12.7916 220.864 14.0629C220.054 15.3342 218.964 16.307 217.596 16.9751C219.535 17.5134 221.059 18.4928 222.174 19.9068ZM199.903 4.762V15.4509H209.68C212.131 15.4509 214.011 14.9969 215.334 14.0888C216.65 13.1808 217.311 11.8577 217.311 10.1065C217.311 8.35524 216.65 7.03207 215.334 6.12404C214.011 5.216 212.131 4.762 209.68 4.762H199.903ZM216.974 29.0909C218.342 28.2024 219.023 26.8014 219.023 24.8945C219.023 21.1715 216.306 19.3101 210.866 19.3101H199.896V30.427H210.866C213.57 30.427 215.606 29.9795 216.974 29.0909Z" fill="#1C8035"/>
<path d="M234.765 25.9452L231.095 34.2927H226.18L241.3 0.89636H246.02L261.185 34.2927H256.18L252.51 25.9452H234.765ZM250.837 22.1315L243.634 5.76733L236.431 22.1315H250.837Z" fill="#1C8035"/>
<path d="M268.596 33.5079C266.262 32.7296 264.42 31.7177 263.085 30.4789L264.848 26.7559C266.119 27.904 267.746 28.8315 269.737 29.545C271.721 30.2584 273.769 30.6216 275.864 30.6216C278.632 30.6216 280.694 30.1546 282.062 29.2141C283.43 28.2737 284.111 27.0284 284.111 25.4718C284.111 24.3302 283.735 23.3962 282.989 22.6828C282.243 21.9693 281.323 21.418 280.22 21.0353C279.125 20.6527 277.575 20.2246 275.572 19.7446C273.056 19.1414 271.033 18.5382 269.49 17.9286C267.947 17.3254 266.631 16.3914 265.529 15.1396C264.433 13.8813 263.882 12.1884 263.882 10.061C263.882 8.27739 264.349 6.67535 265.289 5.24194C266.229 3.80854 267.649 2.66703 269.555 1.80439C271.461 0.941755 273.828 0.513672 276.661 0.513672C278.632 0.513672 280.571 0.766625 282.477 1.27902C284.383 1.79141 286.023 2.51785 287.391 3.47129L285.816 7.28503C284.415 6.39644 282.924 5.72192 281.336 5.25493C279.747 4.79442 278.191 4.56093 276.661 4.56093C273.957 4.56093 271.935 5.05386 270.579 6.03973C269.231 7.0256 268.55 8.29686 268.55 9.8535C268.55 10.995 268.933 11.929 269.698 12.6424C270.463 13.3559 271.409 13.9137 272.538 14.3094C273.666 14.705 275.202 15.1266 277.141 15.5741C279.65 16.1773 281.673 16.7805 283.196 17.3902C284.72 17.9934 286.036 18.9144 287.132 20.1597C288.228 21.3985 288.779 23.0719 288.779 25.1669C288.779 26.9181 288.299 28.5137 287.346 29.96C286.393 31.4064 284.947 32.5544 283.008 33.3976C281.07 34.2408 278.684 34.6624 275.857 34.6624C273.341 34.6624 270.923 34.2732 268.583 33.4949L268.596 33.5079Z" fill="#1C8035"/>
<path d="M290.464 5.0474V0.89636H318.078V5.0474H306.634V34.2927H301.914V5.0474H290.464Z" fill="#1C8035"/>
<path d="M325.138 25.9452L321.469 34.2927H316.554L331.674 0.89636H336.394L351.558 34.2927H346.553L342.884 25.9452H325.138ZM341.211 22.1315L334.008 5.76733L326.804 22.1315H341.211Z" fill="#1C8035"/>
<path d="M359.235 30.8551C356.752 28.3126 355.513 24.6545 355.513 19.8808V0.889868H360.285V19.6862C360.285 26.8403 363.417 30.4206 369.68 30.4206C372.733 30.4206 375.068 29.5385 376.689 27.7743C378.309 26.0101 379.12 23.3119 379.12 19.6862V0.889868H383.743V19.8808C383.743 24.6805 382.504 28.3515 380.021 30.8746C377.538 33.4041 374.076 34.6689 369.621 34.6689C365.167 34.6689 361.705 33.3976 359.222 30.8551H359.235Z" fill="#1C8035"/>
<path d="M80.9241 46.1945H0.742676V47.0117H80.9241V46.1945Z" fill="#1C8035"/>
<path d="M383.749 46.1945H306.284V47.0117H383.749V46.1945Z" fill="#1C8035"/>
<path d="M202.594 46.3955H201.277V49.3013H200.623V46.3955H199.306L197.368 49.3013H196.59L198.755 46.0388L196.758 42.9645H197.478L199.293 45.8053H200.623V42.9645H201.277V45.8053H202.594L204.415 42.9645H205.142L203.132 46.0388L205.304 49.3013H204.526L202.594 46.3955Z" fill="#1C8035"/>
<path d="M206.827 42.9645H207.489V48.2181L211.541 42.9645H212.144V49.3013H211.489V44.0606L207.43 49.3013H206.827V42.9645Z" fill="#1C8035"/>
<path d="M219.6 42.9645V49.3013H218.938V43.5417H215.885L215.813 45.6626C215.781 46.5382 215.716 47.2387 215.599 47.7771C215.489 48.3154 215.314 48.711 215.087 48.9705C214.86 49.2364 214.549 49.3661 214.173 49.3661C214.011 49.3661 213.842 49.3467 213.667 49.3013L213.726 48.7046C213.829 48.7305 213.927 48.7435 214.024 48.7435C214.29 48.7435 214.504 48.6397 214.672 48.4321C214.841 48.2246 214.964 47.8938 215.048 47.4527C215.133 47.0117 215.191 46.4215 215.223 45.6886L215.314 42.9709H219.613L219.6 42.9645Z" fill="#1C8035"/>
<path d="M223.263 48.9315C222.751 48.6462 222.355 48.2635 222.07 47.7771C221.778 47.2906 221.636 46.7393 221.636 46.1296C221.636 45.5199 221.778 44.9686 222.07 44.4822C222.362 43.9957 222.757 43.6066 223.263 43.3277C223.775 43.0488 224.339 42.9061 224.968 42.9061C225.597 42.9061 226.155 43.0488 226.66 43.3277C227.166 43.6066 227.561 43.9893 227.847 44.4822C228.138 44.9751 228.281 45.5264 228.281 46.1361C228.281 46.7458 228.132 47.2971 227.847 47.7901C227.555 48.283 227.16 48.6657 226.66 48.9445C226.155 49.2234 225.59 49.3661 224.968 49.3661C224.346 49.3661 223.775 49.2234 223.263 48.9445M226.323 48.4257C226.732 48.1986 227.043 47.8808 227.27 47.4852C227.497 47.0831 227.613 46.6355 227.613 46.1426C227.613 45.6497 227.497 45.2021 227.27 44.8C227.043 44.3979 226.719 44.0865 226.323 43.8595C225.915 43.6325 225.467 43.5222 224.968 43.5222C224.469 43.5222 224.015 43.6325 223.607 43.8595C223.198 44.0865 222.88 44.4043 222.647 44.8C222.414 45.2021 222.303 45.6497 222.303 46.1426C222.303 46.6355 222.42 47.0831 222.647 47.4852C222.88 47.8873 223.205 48.1986 223.607 48.4257C224.015 48.6527 224.469 48.7629 224.968 48.7629C225.467 48.7629 225.921 48.6527 226.323 48.4257Z" fill="#1C8035"/>
<path d="M230.343 42.9645H231.004V48.2181L235.056 42.9645H235.659V49.3013H234.998V44.0606L230.946 49.3013H230.343V42.9645ZM231.912 42.1926C231.646 41.9916 231.516 41.6997 231.51 41.3365H232.009C232.009 41.5765 232.106 41.771 232.281 41.9072C232.457 42.0499 232.696 42.1148 232.982 42.1148C233.267 42.1148 233.507 42.0499 233.682 41.9072C233.863 41.771 233.954 41.5829 233.961 41.3365H234.46C234.46 41.7062 234.317 41.9916 234.051 42.1926C233.786 42.3937 233.429 42.504 232.988 42.504C232.547 42.504 232.178 42.4002 231.918 42.1926" fill="#1C8035"/>
<path d="M243.18 46.3955H241.728V49.3013H241.073V42.9645H241.728V45.8053H243.18L245.32 42.9645H246.046L243.686 46.0453L246.176 49.3013H245.411L243.18 46.3955Z" fill="#1C8035"/>
<path d="M248.73 48.9315C248.218 48.6462 247.822 48.2635 247.537 47.7771C247.245 47.2906 247.103 46.7393 247.103 46.1296C247.103 45.5199 247.245 44.9686 247.537 44.4822C247.829 43.9957 248.224 43.6066 248.73 43.3277C249.242 43.0488 249.806 42.9061 250.435 42.9061C251.064 42.9061 251.622 43.0488 252.127 43.3277C252.633 43.6066 253.029 43.9893 253.314 44.4822C253.606 44.9751 253.748 45.5264 253.748 46.1361C253.748 46.7458 253.599 47.2971 253.314 47.7901C253.022 48.283 252.627 48.6657 252.127 48.9445C251.622 49.2234 251.058 49.3661 250.435 49.3661C249.813 49.3661 249.242 49.2234 248.73 48.9445M251.79 48.4257C252.199 48.1986 252.51 47.8808 252.737 47.4852C252.964 47.0831 253.081 46.6355 253.081 46.1426C253.081 45.6497 252.964 45.2021 252.737 44.8C252.51 44.3979 252.186 44.0865 251.79 43.8595C251.382 43.6325 250.934 43.5222 250.435 43.5222C249.936 43.5222 249.482 43.6325 249.074 43.8595C248.665 44.0865 248.348 44.4043 248.114 44.8C247.881 45.2021 247.771 45.6497 247.771 46.1426C247.771 46.6355 247.887 47.0831 248.114 47.4852C248.348 47.8873 248.672 48.1986 249.074 48.4257C249.482 48.6527 249.936 48.7629 250.435 48.7629C250.934 48.7629 251.388 48.6527 251.79 48.4257Z" fill="#1C8035"/>
<path d="M262.384 42.9645V49.3013H261.742V44.2357L259.253 48.497H258.935L256.452 44.2617V49.3013H255.804V42.9645H256.361L259.11 47.6668L261.833 42.9645H262.384Z" fill="#1C8035"/>
<path d="M270.307 42.9645V49.3013H269.646V43.5482H265.633V49.3013H264.978V42.9645H270.307Z" fill="#1C8035"/>
<path d="M277.757 42.9645V49.3013H277.095V43.5417H274.042L273.97 45.6626C273.938 46.5382 273.873 47.2387 273.756 47.7771C273.646 48.3154 273.471 48.711 273.244 48.9705C273.017 49.2364 272.706 49.3661 272.33 49.3661C272.168 49.3661 271.999 49.3467 271.824 49.3013L271.883 48.7046C271.986 48.7305 272.084 48.7435 272.181 48.7435C272.447 48.7435 272.661 48.6397 272.829 48.4321C272.998 48.2246 273.121 47.8938 273.205 47.4527C273.29 47.0117 273.348 46.4215 273.38 45.6886L273.471 42.9709H277.77L277.757 42.9645Z" fill="#1C8035"/>
<path d="M284.83 48.724V49.3013H280.344V42.9645H284.694V43.5482H281.018V45.8053H284.299V46.3696H281.018V48.724H284.83Z" fill="#1C8035"/>
<path d="M288.863 46.3955H287.417V49.3013H286.762V42.9645H287.417V45.8053H288.863L291.009 42.9645H291.729L289.382 46.0453L291.871 49.3013H291.1L288.863 46.3955Z" fill="#1C8035"/>
<path d="M294.419 48.938C293.914 48.6591 293.518 48.2765 293.233 47.7835C292.941 47.2906 292.798 46.7393 292.798 46.1296C292.798 45.5199 292.941 44.9686 293.233 44.4757C293.518 43.9827 293.92 43.6001 294.419 43.3212C294.925 43.0423 295.489 42.8996 296.118 42.8996C296.585 42.8996 297.026 42.9774 297.421 43.1331C297.823 43.2887 298.154 43.5223 298.433 43.8206L298.005 44.2487C297.512 43.7493 296.883 43.4963 296.131 43.4963C295.632 43.4963 295.178 43.6131 294.763 43.8401C294.348 44.0671 294.03 44.3849 293.803 44.7805C293.57 45.1827 293.453 45.6237 293.453 46.1166C293.453 46.6096 293.57 47.0571 293.803 47.4527C294.037 47.8549 294.361 48.1597 294.763 48.3932C295.178 48.6202 295.625 48.737 296.131 48.737C296.889 48.737 297.518 48.484 298.005 47.9781L298.433 48.4062C298.154 48.711 297.817 48.938 297.415 49.0937C297.013 49.2559 296.578 49.3337 296.105 49.3337C295.476 49.3337 294.912 49.1975 294.413 48.9121L294.419 48.938Z" fill="#1C8035"/>
<path d="M193.017 42.5818H192.421V51.0525H193.017V42.5818Z" fill="#1C8035"/>
<path d="M91.1681 43.5417H88.9442V49.2948H88.2764V43.5417H86.0526V42.958H91.1681V43.5417Z" fill="#1C8035"/>
<path d="M94.8831 47.1025V49.2883H94.2218V47.1025L91.6867 42.958H92.3999L94.5719 46.5123L96.7439 42.958H97.4182L94.8831 47.1025ZM92.5037 46.8041H96.5688V47.3101H92.5037V46.8041Z" fill="#1C8035"/>
<path d="M103.091 43.5417C103.545 43.9309 103.778 44.4627 103.778 45.1308C103.778 45.7988 103.552 46.3372 103.091 46.7199C102.637 47.1025 102.002 47.2906 101.192 47.2906H99.4929V49.2883H98.8186V42.9515H101.192C102.002 42.9515 102.631 43.1396 103.091 43.5287M102.611 46.2853C102.942 46.0129 103.111 45.6237 103.111 45.1178C103.111 44.6119 102.942 44.2098 102.611 43.9309C102.281 43.6585 101.801 43.5158 101.172 43.5158H99.4864V46.6874H101.172C101.801 46.6874 102.281 46.5512 102.611 46.2723" fill="#1C8035"/>
<path d="M106.56 43.5417V46.0972H109.296V46.6096H106.573V49.2948H105.912V46.6096H104.939V46.0972H105.912V42.958H109.938V43.5417H106.56Z" fill="#1C8035"/>
<path d="M116.013 45.7275C116.408 46.0648 116.603 46.5577 116.603 47.2128C116.603 47.8678 116.395 48.4127 115.974 48.7694C115.553 49.1197 114.95 49.3013 114.159 49.3013H111.643V42.9645H112.304V45.2281H114.295C115.04 45.2281 115.611 45.4032 116.006 45.734M115.468 48.3803C115.773 48.1208 115.922 47.7381 115.922 47.2322C115.922 46.2593 115.326 45.7794 114.126 45.7794H112.291V48.7759H114.126C114.71 48.7759 115.157 48.6462 115.462 48.3867M117.686 42.9709H118.347V49.3077H117.686V42.9709Z" fill="#1C8035"/>
<path d="M126.244 42.958V49.2948H125.582V46.3761H121.621V49.2948H120.953V42.958H121.621V45.7859H125.582V42.958H126.244Z" fill="#1C8035"/>
<path d="M133.862 47.1025V49.2948H133.201V47.1025L130.672 42.958H131.385L133.551 46.5188L135.729 42.958H136.397L133.862 47.1025Z" fill="#1C8035"/>
<path d="M137.875 42.958H138.537V48.2116L142.589 42.958H143.192V49.2948H142.53V44.0541L138.478 49.2948H137.875V42.958ZM139.444 42.1861C139.178 41.9851 139.049 41.6932 139.042 41.33H139.541C139.541 41.5699 139.639 41.7645 139.814 41.9007C139.989 42.0434 140.222 42.1083 140.514 42.1083C140.806 42.1083 141.039 42.0434 141.214 41.9007C141.396 41.7645 141.487 41.5764 141.493 41.33H141.992C141.992 41.6997 141.85 41.9851 141.584 42.1861C141.318 42.3872 140.961 42.4975 140.52 42.4975C140.08 42.4975 139.71 42.3937 139.451 42.1861" fill="#1C8035"/>
<path d="M150.706 46.3891H149.254V49.2948H148.605V42.958H149.254V45.8053H150.706L152.852 42.958H153.572L151.218 46.0388L153.708 49.2948H152.936L150.706 46.3891Z" fill="#1C8035"/>
<path d="M159.673 48.7175V49.2948H155.193V42.958H159.537V43.5417H155.854V45.7988H159.135V46.3631H155.854V48.7175H159.673Z" fill="#1C8035"/>
<path d="M169.372 42.958V49.2948H161.605V42.958H162.266V48.7175H165.164V42.958H165.826V48.7175H168.717V42.958H169.372Z" fill="#1C8035"/>
<path d="M176.439 48.7175V49.2948H171.959V42.958H176.303V43.5417H172.627V45.7988H175.907V46.3631H172.627V48.7175H176.439Z" fill="#1C8035"/>
<path d="M183.675 42.958V49.2948H183.007V46.3761H179.045V49.2948H178.378V42.958H179.045V45.7859H183.007V42.958H183.675Z" fill="#1C8035"/>
<path d="M186.916 42.958H186.255V49.2948H186.916V42.958Z" fill="#1C8035"/>
</svg>
