<svg width="25" height="28" viewBox="0 0 25 28" fill="none" xmlns="http://www.w3.org/2000/svg">
<path d="M1.85449 12.3894C0.827612 12.3894 -0.00483906 13.2219 -0.00483906 14.2488C-0.00483906 15.2757 0.827612 16.1081 1.85449 16.1081V12.3894ZM24.4321 15.5635C25.1582 14.8374 25.1582 13.6601 24.4321 12.934L12.5994 1.10132C11.8733 0.375208 10.696 0.375208 9.9699 1.10132C9.24379 1.82744 9.24379 3.0047 9.9699 3.73081L20.4879 14.2488L9.9699 24.7667C9.24379 25.4929 9.24379 26.6701 9.9699 27.3962C10.696 28.1224 11.8733 28.1224 12.5994 27.3962L24.4321 15.5635ZM1.85449 16.1081H23.1174V12.3894L1.85449 12.3894V16.1081Z" fill="#AAAAAA"/>
</svg>
