<svg width="59" height="56" viewBox="0 0 59 56" fill="none" xmlns="http://www.w3.org/2000/svg">
<path d="M38.3933 31.267H35.6807V23.8073C35.6807 23.6274 35.6093 23.455 35.4821 23.3278C35.3549 23.2006 35.1824 23.1291 35.0026 23.1291H32.9681V17.7039C32.9681 14.8262 31.825 12.0664 29.7901 10.0315C27.7553 7.99668 24.9954 6.85352 22.1177 6.85352C19.24 6.85352 16.4802 7.99668 14.4453 10.0315C12.4105 12.0664 11.2673 14.8262 11.2673 17.7039V23.1291H9.23284C9.05298 23.1291 8.88049 23.2006 8.75331 23.3278C8.62614 23.455 8.55469 23.6274 8.55469 23.8073V45.5081C8.55469 45.688 8.62614 45.8605 8.75331 45.9877C8.88049 46.1148 9.05298 46.1863 9.23284 46.1863H28.8992C28.8992 46.9057 29.185 47.5957 29.6937 48.1044C30.2024 48.6131 30.8924 48.8989 31.6118 48.8989H38.3933C39.1128 48.8989 39.8027 48.6131 40.3114 48.1044C40.8202 47.5957 41.1059 46.9057 41.1059 46.1863V33.9796C41.1059 33.2601 40.8202 32.5702 40.3114 32.0615C39.8027 31.5528 39.1128 31.267 38.3933 31.267ZM28.8992 23.1291V21.0947H31.6118V23.1291H28.8992ZM27.5429 23.1291H16.6925V17.7039C16.6925 16.2651 17.2641 14.8852 18.2815 13.8677C19.2989 12.8503 20.6789 12.2787 22.1177 12.2787C23.5566 12.2787 24.9365 12.8503 25.9539 13.8677C26.9713 14.8852 27.5429 16.2651 27.5429 17.7039V23.1291ZM22.1177 8.20982C24.6349 8.21251 27.0482 9.21365 28.8281 10.9936C30.608 12.7735 31.6091 15.1868 31.6118 17.7039V19.7384H28.8992V17.7039C28.8992 15.9054 28.1847 14.1805 26.913 12.9087C25.6412 11.6369 23.9163 10.9224 22.1177 10.9224C20.3191 10.9224 18.5942 11.6369 17.3225 12.9087C16.0507 14.1805 15.3362 15.9054 15.3362 17.7039V19.7384H12.6236V17.7039C12.6263 15.1868 13.6274 12.7735 15.4073 10.9936C17.1872 9.21365 19.6005 8.21251 22.1177 8.20982ZM12.6236 21.0947H15.3362V23.1291H12.6236V21.0947ZM9.91099 44.83V24.4854H34.3244V31.267H32.9681V26.5199C32.9681 26.34 32.8967 26.1676 32.7695 26.0404C32.6423 25.9132 32.4698 25.8418 32.29 25.8418H11.9454C11.7656 25.8418 11.5931 25.9132 11.4659 26.0404C11.3387 26.1676 11.2673 26.34 11.2673 26.5199V42.7955C11.2673 42.9754 11.3387 43.1479 11.4659 43.2751C11.5931 43.4022 11.7656 43.4737 11.9454 43.4737H28.8992V44.83H9.91099ZM28.8992 33.9796V42.1174H12.6236V27.1981H31.6118V31.267C30.8924 31.267 30.2024 31.5528 29.6937 32.0615C29.185 32.5702 28.8992 33.2601 28.8992 33.9796ZM39.7496 46.1863C39.7496 46.546 39.6068 46.891 39.3524 47.1453C39.098 47.3997 38.7531 47.5426 38.3933 47.5426H31.6118C31.2521 47.5426 30.9071 47.3997 30.6528 47.1453C30.3984 46.891 30.2555 46.546 30.2555 46.1863V33.9796C30.2555 33.6199 30.3984 33.2749 30.6528 33.0205C30.9071 32.7662 31.2521 32.6233 31.6118 32.6233H38.3933C38.7531 32.6233 39.098 32.7662 39.3524 33.0205C39.6068 33.2749 39.7496 33.6199 39.7496 33.9796V46.1863Z" fill="white"/>
<path d="M37.2452 37.5399L36.348 38.5571C36.658 38.8304 36.8774 39.1916 36.977 39.5927C37.0767 39.9938 37.0518 40.4157 36.9057 40.8023C36.7596 41.1889 36.4993 41.5218 36.1593 41.7567C35.8193 41.9917 35.4159 42.1176 35.0026 42.1176C34.5893 42.1176 34.1859 41.9917 33.8459 41.7567C33.5059 41.5218 33.2456 41.1889 33.0995 40.8023C32.9534 40.4157 32.9285 39.9938 33.0281 39.5927C33.1277 39.1916 33.3471 38.8304 33.6571 38.5571L32.7599 37.5399C32.2434 37.9954 31.8777 38.5975 31.7118 39.2659C31.5458 39.9344 31.5873 40.6375 31.8308 41.2818C32.0743 41.926 32.5082 42.4809 33.0748 42.8725C33.6414 43.2641 34.3138 43.4738 35.0026 43.4738C35.6913 43.4738 36.3638 43.2641 36.9304 42.8725C37.497 42.4809 37.9309 41.926 38.1744 41.2818C38.4179 40.6375 38.4594 39.9344 38.2934 39.2659C38.1274 38.5975 37.7618 37.9954 37.2452 37.5399Z" fill="white"/>
<path d="M34.3244 36.6922H35.6807V39.4048H34.3244V36.6922Z" fill="white"/>
<path d="M22.1177 28.5544C21.0389 28.5554 20.0046 28.9845 19.2418 29.7473C18.4789 30.5101 18.0499 31.5445 18.0488 32.6233C18.0481 33.1936 18.1686 33.7575 18.4024 34.2777C18.6363 34.7979 18.9781 35.2624 19.4051 35.6404V38.0485C19.4051 38.7679 19.6909 39.4579 20.1996 39.9666C20.7083 40.4753 21.3983 40.7611 22.1177 40.7611C22.8371 40.7611 23.5271 40.4753 24.0358 39.9666C24.5445 39.4579 24.8303 38.7679 24.8303 38.0485V35.6404C25.2574 35.2624 25.5992 34.7979 25.833 34.2777C26.0668 33.7575 26.1874 33.1936 26.1866 32.6233C26.1855 31.5445 25.7565 30.5101 24.9937 29.7473C24.2308 28.9845 23.1965 28.5554 22.1177 28.5544ZM23.7453 34.7798C23.6611 34.843 23.5927 34.9249 23.5456 35.019C23.4985 35.1132 23.474 35.217 23.474 35.3223V38.0485C23.474 38.4082 23.3311 38.7532 23.0768 39.0075C22.8224 39.2619 22.4774 39.4048 22.1177 39.4048C21.758 39.4048 21.413 39.2619 21.1587 39.0075C20.9043 38.7532 20.7614 38.4082 20.7614 38.0485V35.321C20.7614 35.2157 20.7369 35.1118 20.6898 35.0177C20.6427 34.9235 20.5744 34.8416 20.4902 34.7784C20.1539 34.5286 19.8806 34.2036 19.6922 33.8294C19.5039 33.4552 19.4055 33.0422 19.4051 32.6233C19.4051 31.9038 19.6909 31.2139 20.1996 30.7052C20.7083 30.1965 21.3983 29.9107 22.1177 29.9107C22.8371 29.9107 23.5271 30.1965 24.0358 30.7052C24.5445 31.2139 24.8303 31.9038 24.8303 32.6233C24.8301 33.0424 24.7319 33.4557 24.5435 33.8302C24.3551 34.2046 24.0817 34.5298 23.7453 34.7798Z" fill="white"/>
<path d="M43.1404 27.8762C42.738 27.8762 42.3447 27.9955 42.0101 28.2191C41.6756 28.4426 41.4148 28.7604 41.2608 29.1321C41.1068 29.5039 41.0665 29.9129 41.145 30.3076C41.2235 30.7022 41.4173 31.0647 41.7018 31.3492C41.9864 31.6338 42.3489 31.8275 42.7435 31.906C43.1381 31.9845 43.5472 31.9442 43.919 31.7902C44.2907 31.6363 44.6084 31.3755 44.832 31.0409C45.0555 30.7064 45.1749 30.313 45.1749 29.9107C45.1749 29.3711 44.9605 28.8536 44.579 28.4721C44.1974 28.0906 43.68 27.8762 43.1404 27.8762ZM43.1404 30.5888C43.0063 30.5888 42.8752 30.549 42.7636 30.4745C42.6521 30.4 42.5652 30.2941 42.5139 30.1702C42.4625 30.0463 42.4491 29.9099 42.4753 29.7784C42.5014 29.6468 42.566 29.526 42.6609 29.4311C42.7557 29.3363 42.8766 29.2717 43.0081 29.2455C43.1397 29.2194 43.276 29.2328 43.3999 29.2841C43.5238 29.3355 43.6297 29.4224 43.7043 29.5339C43.7788 29.6454 43.8186 29.7765 43.8186 29.9107C43.8186 30.0905 43.7471 30.263 43.6199 30.3902C43.4928 30.5174 43.3203 30.5888 43.1404 30.5888Z" fill="white"/>
<path d="M43.1404 25.1636V26.5199C44.0394 26.521 44.9012 26.8786 45.5368 27.5142C46.1725 28.1499 46.5301 29.0117 46.5312 29.9107H47.8875C47.886 28.6521 47.3854 27.4455 46.4955 26.5556C45.6056 25.6656 44.399 25.165 43.1404 25.1636Z" fill="white"/>
<path d="M43.1404 22.451V23.8073C44.7586 23.8091 46.3099 24.4527 47.4542 25.5969C48.5984 26.7411 49.242 28.2925 49.2438 29.9107H50.6001C50.5977 27.933 49.8111 26.0369 48.4126 24.6385C47.0142 23.24 45.1181 22.4533 43.1404 22.451Z" fill="white"/>
</svg>
