<svg width="61" height="55" viewBox="0 0 61 55" fill="none" xmlns="http://www.w3.org/2000/svg">
<path fill-rule="evenodd" clip-rule="evenodd" d="M17.5837 32.5292C17.2356 32.5292 16.9007 32.3368 16.7347 32.0042C16.501 31.5358 16.6912 30.9666 17.1598 30.7329L54.7148 11.9952C55.0611 11.8224 55.2025 11.4 55.0297 11.0539L53.8612 8.71176C53.7774 8.54389 53.6336 8.41881 53.4557 8.3594C53.2777 8.29998 53.0873 8.31331 52.9195 8.39692L15.8624 26.8865C15.3939 27.1202 14.8248 26.9301 14.5909 26.4616C14.3572 25.9932 14.5473 25.4239 15.0158 25.1901L52.0732 6.70029C52.6943 6.39056 53.3987 6.34118 54.0567 6.56106C54.715 6.7811 55.2481 7.24422 55.5578 7.86533L56.7261 10.2071C57.3657 11.4883 56.8433 13.0517 55.5614 13.6915L18.0064 32.4292C17.8704 32.497 17.7259 32.5292 17.5837 32.5292Z" fill="#ECE7E3"/>
<path fill-rule="evenodd" clip-rule="evenodd" d="M49.9808 16.3816C49.7992 16.3816 49.6159 16.3295 49.4538 16.2209L43.791 12.4256C43.3562 12.1341 43.2398 11.5453 43.5313 11.1105C43.8228 10.6755 44.4116 10.5593 44.8466 10.8508L50.5094 14.6461C50.9442 14.9376 51.0606 15.5264 50.7691 15.9614C50.5862 16.2341 50.2864 16.3816 49.9808 16.3816Z" fill="#ECE7E3"/>
<path fill-rule="evenodd" clip-rule="evenodd" d="M41.7753 20.4756C41.5937 20.4756 41.4104 20.4236 41.2483 20.3149L35.5855 16.5196C35.1507 16.2282 35.0344 15.6393 35.3258 15.2045C35.6173 14.7697 36.206 14.6533 36.6411 14.9448L42.3039 18.7401C42.7387 19.0316 42.8551 19.6204 42.5636 20.0554C42.3808 20.3281 42.0807 20.4756 41.7753 20.4756Z" fill="#ECE7E3"/>
<path fill-rule="evenodd" clip-rule="evenodd" d="M33.5696 24.5698C33.3881 24.5698 33.2047 24.5178 33.0426 24.4091L27.3799 20.6138C26.9449 20.3224 26.8287 19.7335 27.1202 19.2987C27.4116 18.8637 28.0005 18.7475 28.4353 19.039L34.0981 22.8343C34.5329 23.1258 34.6492 23.7146 34.3578 24.1496C34.1751 24.4223 33.8752 24.5698 33.5696 24.5698Z" fill="#ECE7E3"/>
<path fill-rule="evenodd" clip-rule="evenodd" d="M25.1699 28.7606C24.9884 28.7606 24.805 28.7086 24.6429 28.5999L18.9802 24.8046C18.5452 24.5132 18.429 23.9243 18.7205 23.4895C19.0119 23.0545 19.6008 22.9383 20.0356 23.2298L25.6984 27.0251C26.1334 27.3166 26.2495 27.9054 25.9581 28.3402C25.7754 28.6131 25.4755 28.7606 25.1699 28.7606Z" fill="#ECE7E3"/>
<path fill-rule="evenodd" clip-rule="evenodd" d="M17.5829 44.3762C17.0594 44.3762 16.6349 43.9517 16.6349 43.4282V30.5057C16.6349 27.8717 14.492 25.7287 11.8579 25.7287C10.5818 25.7287 9.38235 26.2256 8.48047 27.1278C7.59603 28.0119 7.09934 29.1863 7.0814 30.4355L7.08107 43.4282C7.08107 43.9517 6.65662 44.3762 6.1331 44.3762C5.60958 44.3762 5.18514 43.9517 5.18514 43.4282L5.18547 30.4292C5.18547 30.4251 5.18547 30.421 5.18563 30.4169C5.20851 28.6684 5.90253 27.0243 7.13982 25.7875C8.39966 24.5271 10.0754 23.833 11.8579 23.833C15.5374 23.833 18.5309 26.8264 18.5309 30.5059V43.4283C18.5309 43.9517 18.1064 44.3762 17.5829 44.3762Z" fill="#ECE7E3"/>
<path fill-rule="evenodd" clip-rule="evenodd" d="M19.0032 48.4721C18.4797 48.4721 18.0552 48.0477 18.0552 47.5242V44.3762H5.66076V47.5242C5.66076 48.0477 5.23632 48.4721 4.7128 48.4721C4.18928 48.4721 3.76483 48.0477 3.76483 47.5242V43.4282C3.76483 42.9047 4.18928 42.4802 4.7128 42.4802H19.0032C19.5267 42.4802 19.9512 42.9047 19.9512 43.4282V47.5242C19.9512 48.0477 19.5267 48.4721 19.0032 48.4721Z" fill="#ECE7E3"/>
<path fill-rule="evenodd" clip-rule="evenodd" d="M11.8581 33.7644C10.3176 33.7644 9.06455 32.5111 9.06455 30.9708C9.06455 29.4304 10.3178 28.1773 11.8581 28.1773C13.3984 28.1773 14.6516 29.4306 14.6516 30.9708C14.6515 32.5111 13.3984 33.7644 11.8581 33.7644ZM11.8581 30.0731C11.363 30.0731 10.9605 30.4758 10.9605 30.9707C10.9605 31.4657 11.3632 31.8683 11.8581 31.8683C12.3531 31.8683 12.7557 31.4656 12.7557 30.9707C12.7557 30.4758 12.353 30.0731 11.8581 30.0731Z" fill="#ECE7E3"/>
<path fill-rule="evenodd" clip-rule="evenodd" d="M55.176 48.4721C54.6525 48.4721 54.228 48.0477 54.228 47.5242V30.6583H50.9913V47.5242C50.9913 48.0477 50.5668 48.4721 50.0433 48.4721C49.5198 48.4721 49.0953 48.0477 49.0953 47.5242V29.7103C49.0953 29.1868 49.5198 28.7624 50.0433 28.7624H55.176C55.6995 28.7624 56.1239 29.1868 56.1239 29.7103V47.5242C56.1239 48.0477 55.6997 48.4721 55.176 48.4721Z" fill="#ECE7E3"/>
<path fill-rule="evenodd" clip-rule="evenodd" d="M59.7692 48.4721H0.995328C0.471808 48.4721 0.0473633 48.0477 0.0473633 47.5242C0.0473633 47.0007 0.471808 46.5762 0.995328 46.5762H59.7692C60.2927 46.5762 60.7171 47.0007 60.7171 47.5242C60.7171 48.0477 60.2927 48.4721 59.7692 48.4721Z" fill="#ECE7E3"/>
</svg>
