<svg width="60" height="55" viewBox="0 0 60 55" fill="none" xmlns="http://www.w3.org/2000/svg">
<path d="M29.9569 48.5741C29.6492 48.5741 29.3996 48.3247 29.3996 48.0168V30.1806C29.3996 30.0403 29.2812 29.9219 29.1409 29.9219H10.372C10.2318 29.9219 10.1132 30.0403 10.1132 30.1806V48.0168C10.1132 48.3247 9.86363 48.5741 9.55592 48.5741C9.24821 48.5741 8.99867 48.3247 8.99867 48.0168V30.1806C8.99867 29.4234 9.61465 28.8074 10.372 28.8074H29.1409C29.898 28.8074 30.5141 29.4234 30.5141 30.1806V48.0168C30.5142 48.3247 30.2646 48.5741 29.9569 48.5741Z" fill="#ECE7E3"/>
<path d="M27.5671 29.9219C27.2594 29.9219 27.0098 29.6725 27.0098 29.3646V17.7978H12.503V29.3646C12.503 29.6725 12.2534 29.9219 11.9457 29.9219C11.638 29.9219 11.3885 29.6725 11.3885 29.3646V17.2406C11.3885 16.9329 11.638 16.6833 11.9457 16.6833H27.5671C27.8748 16.6833 28.1243 16.9329 28.1243 17.2406V29.3646C28.1243 29.6723 27.8749 29.9219 27.5671 29.9219Z" fill="#ECE7E3"/>
<path d="M11.9453 17.7979C11.8365 17.7979 11.7266 17.7662 11.6301 17.6999C11.3766 17.5256 11.3121 17.1786 11.4865 16.9251L18.1167 7.27676C18.5327 6.67125 19.1304 6.32397 19.7563 6.32397C20.3823 6.32397 20.98 6.67125 21.396 7.27676L28.0262 16.9251C28.2006 17.1787 28.1362 17.5256 27.8826 17.6999C27.629 17.8742 27.282 17.81 27.1078 17.5562L20.4775 7.9079C20.2695 7.6052 20.0134 7.43847 19.7563 7.43847C19.4993 7.43847 19.2432 7.6052 19.0352 7.9079L12.4049 17.5562C12.297 17.7133 12.1226 17.7979 11.9453 17.7979Z" fill="#ECE7E3"/>
<path d="M24.3612 29.9219C24.0535 29.9219 23.804 29.6725 23.804 29.3646V24.0012C23.804 21.7694 21.9882 19.9537 19.7565 19.9537C17.5247 19.9537 15.7089 21.7694 15.7089 24.0012V29.3646C15.7089 29.6725 15.4594 29.9219 15.1517 29.9219C14.844 29.9219 14.5944 29.6725 14.5944 29.3646V24.0012C14.5944 21.1549 16.9101 18.8392 19.7565 18.8392C22.6029 18.8392 24.9185 21.1549 24.9185 24.0012V29.3646C24.9185 29.6723 24.6689 29.9219 24.3612 29.9219Z" fill="#ECE7E3"/>
<path d="M24.3612 48.5741C24.0535 48.5741 23.804 48.3247 23.804 48.0168V29.9219H15.7089V48.0168C15.7089 48.3247 15.4594 48.5741 15.1517 48.5741C14.844 48.5741 14.5944 48.3247 14.5944 48.0168V29.3646C14.5944 29.0568 14.844 28.8074 15.1517 28.8074H24.3612C24.6689 28.8074 24.9185 29.0568 24.9185 29.3646V48.0168C24.9185 48.3247 24.6689 48.5741 24.3612 48.5741Z" fill="#ECE7E3"/>
<path d="M39.8515 48.5249C39.6276 48.5249 39.4165 48.3891 39.3313 48.1676L32.3236 29.9457H27.5671C27.2594 29.9457 27.0098 29.6963 27.0098 29.3885V25.658C27.0098 25.3503 27.2594 25.1008 27.5671 25.1008H34.9902C35.2208 25.1008 35.4275 25.2428 35.5103 25.458L42.518 43.6799H49.1312C49.4391 43.6799 49.6885 43.9293 49.6885 44.2371V47.9677C49.6885 48.2755 49.4391 48.5249 49.1312 48.5249C48.8234 48.5249 48.574 48.2755 48.574 47.9677V44.7944H42.1354C41.9048 44.7944 41.6981 44.6524 41.6153 44.4372L34.6076 26.2153H28.1244V28.8312H32.7065C32.9371 28.8312 33.1438 28.9732 33.2266 29.1884L40.3715 47.7675C40.482 48.0547 40.3386 48.3773 40.0514 48.4877C39.9857 48.5129 39.918 48.5249 39.8515 48.5249Z" fill="#ECE7E3"/>
<path d="M54.0529 48.5741H5.90661C5.5989 48.5741 5.34937 48.3247 5.34937 48.0168C5.34937 47.709 5.5989 47.4596 5.90661 47.4596H54.0529C54.3607 47.4596 54.6101 47.709 54.6101 48.0168C54.6101 48.3247 54.3606 48.5741 54.0529 48.5741Z" fill="#ECE7E3"/>
<path d="M24.3612 34.0019H15.1517C14.844 34.0019 14.5944 33.7525 14.5944 33.4447C14.5944 33.1369 14.844 32.8874 15.1517 32.8874H24.3612C24.6689 32.8874 24.9185 33.1369 24.9185 33.4447C24.9185 33.7525 24.6689 34.0019 24.3612 34.0019Z" fill="#ECE7E3"/>
<path d="M24.3612 39.2479H15.1517C14.844 39.2479 14.5944 38.9985 14.5944 38.6906C14.5944 38.3828 14.844 38.1334 15.1517 38.1334H24.3612C24.6689 38.1334 24.9185 38.3828 24.9185 38.6906C24.9185 38.9985 24.6689 39.2479 24.3612 39.2479Z" fill="#ECE7E3"/>
<path d="M24.3612 44.4939H15.1517C14.844 44.4939 14.5944 44.2445 14.5944 43.9367C14.5944 43.6289 14.844 43.3794 15.1517 43.3794H24.3612C24.6689 43.3794 24.9185 43.6289 24.9185 43.9367C24.9185 44.2445 24.6689 44.4939 24.3612 44.4939Z" fill="#ECE7E3"/>
<path d="M19.7565 15.9316C18.2921 15.9316 17.1007 14.7403 17.1007 13.276C17.1007 11.8116 18.292 10.6204 19.7565 10.6204C21.2208 10.6204 22.4121 11.8116 22.4121 13.276C22.4121 14.7403 21.2208 15.9316 19.7565 15.9316ZM19.7565 11.7349C18.9067 11.7349 18.2152 12.4262 18.2152 13.276C18.2152 14.1258 18.9067 14.8171 19.7565 14.8171C20.6063 14.8171 21.2976 14.1258 21.2976 13.276C21.2976 12.4262 20.6063 11.7349 19.7565 11.7349Z" fill="#ECE7E3"/>
<path d="M45.5335 21.6732H34.3585C32.5688 21.6732 31.1128 20.2172 31.1128 18.4275C31.1128 16.7031 32.4648 15.2884 34.1644 15.1877C34.427 13.6599 35.7614 12.4936 37.3631 12.4936C37.5578 12.4936 37.7496 12.5104 37.9377 12.5441C38.1786 10.2382 40.1339 8.43472 42.5026 8.43472C45.0334 8.43472 47.0924 10.4936 47.0924 13.0244C47.0924 13.839 46.8778 14.629 46.4768 15.3218C47.8079 15.7268 48.7792 16.9659 48.7792 18.4276C48.7791 20.2172 47.3232 21.6732 45.5335 21.6732ZM34.3585 16.2964C33.1834 16.2964 32.2273 17.2524 32.2273 18.4275C32.2273 19.6026 33.1834 20.5587 34.3585 20.5587H45.5336C46.7087 20.5587 47.6647 19.6026 47.6647 18.4275C47.6647 17.2524 46.7087 16.2964 45.5336 16.2964L45.4949 16.2968C45.2703 16.3005 45.0683 16.1727 44.9764 15.9698C44.8845 15.767 44.9221 15.5289 45.072 15.3643C45.6561 14.7235 45.9779 13.8924 45.9779 13.0243C45.9779 11.1081 44.4189 9.5491 42.5026 9.5491C40.5862 9.5491 39.0272 11.1081 39.0272 13.0243C39.0272 13.0987 39.0298 13.1766 39.0351 13.2559C39.0481 13.4517 38.9571 13.6399 38.7956 13.7514C38.6342 13.8629 38.4261 13.8813 38.2475 13.7996C37.9693 13.6724 37.6718 13.608 37.3629 13.608C36.1879 13.608 35.2319 14.564 35.2319 15.7391C35.2347 15.8998 35.1681 16.0585 35.0487 16.1664C34.9296 16.2743 34.7694 16.3296 34.6098 16.3112C34.5263 16.3014 34.4416 16.2964 34.3585 16.2964Z" fill="#ECE7E3"/>
</svg>
