<svg width="59" height="56" viewBox="0 0 59 56" fill="none" xmlns="http://www.w3.org/2000/svg">
<path fill-rule="evenodd" clip-rule="evenodd" d="M49.0118 48.9116H9.94748C9.72 48.9116 9.53687 48.7276 9.53687 48.501V7.27683C9.53687 7.05017 9.72 6.86621 9.94748 6.86621H49.0118C49.2393 6.86621 49.4224 7.05017 49.4224 7.27683V48.501C49.4224 48.7276 49.2385 48.9116 49.0118 48.9116ZM10.3581 48.0904H48.6012V7.68744H10.3581V48.0904Z" fill="white"/>
<path fill-rule="evenodd" clip-rule="evenodd" d="M49.0118 9.93022H9.94748C9.72 9.93022 9.53687 9.74627 9.53687 9.51961C9.53687 9.29295 9.72 9.10899 9.94748 9.10899H49.0118C49.2393 9.10899 49.4224 9.29295 49.4224 9.51961C49.4224 9.74627 49.2393 9.93022 49.0118 9.93022Z" fill="white"/>
<path fill-rule="evenodd" clip-rule="evenodd" d="M49.0118 12.7306H9.94748C9.72 12.7306 9.53687 12.5467 9.53687 12.32C9.53687 12.0933 9.72 11.9094 9.94748 11.9094H49.0118C49.2393 11.9094 49.4224 12.0933 49.4224 12.32C49.4224 12.5467 49.2393 12.7306 49.0118 12.7306Z" fill="white"/>
<path fill-rule="evenodd" clip-rule="evenodd" d="M39.8206 48.9116H12.6756C12.449 48.9116 12.265 48.7276 12.265 48.501V16.0377C12.265 15.8111 12.449 15.6271 12.6756 15.6271H39.8206C40.0472 15.6271 40.2304 15.8111 40.2304 16.0377V48.501C40.2312 48.7276 40.0472 48.9116 39.8206 48.9116ZM13.0862 48.0904H39.41V16.4483H13.0862V48.0904Z" fill="white"/>
<path fill-rule="evenodd" clip-rule="evenodd" d="M37.0629 46.1539H15.4333C15.2066 46.1539 15.0227 45.9699 15.0227 45.7433V18.7954C15.0227 18.5688 15.2066 18.3848 15.4333 18.3848H37.0629C37.2895 18.3848 37.4735 18.5688 37.4735 18.7954V45.7433C37.4735 45.9699 37.2895 46.1539 37.0629 46.1539ZM15.8439 45.3327H36.6523V19.206H15.8439V45.3327Z" fill="white"/>
<path fill-rule="evenodd" clip-rule="evenodd" d="M27.6122 46.1539H24.884C24.6574 46.1539 24.4734 45.9699 24.4734 45.7433V18.7954C24.4734 18.5688 24.6574 18.3848 24.884 18.3848H27.6122C27.8396 18.3848 28.0228 18.5688 28.0228 18.7954V45.7433C28.0228 45.9699 27.8396 46.1539 27.6122 46.1539ZM25.2946 45.3327H27.2015V19.206H25.2946V45.3327Z" fill="white"/>
<path fill-rule="evenodd" clip-rule="evenodd" d="M20.1283 35.1215C19.9016 35.1215 19.7177 34.9375 19.7177 34.7109V29.8278C19.7177 29.6012 19.9016 29.4172 20.1283 29.4172C20.3558 29.4172 20.5389 29.6012 20.5389 29.8278V34.7109C20.5389 34.9375 20.3558 35.1215 20.1283 35.1215Z" fill="white"/>
<path fill-rule="evenodd" clip-rule="evenodd" d="M22.2109 31.9622C22.1189 31.9622 22.0261 31.931 21.9498 31.8678L20.1283 30.3608L18.3076 31.8678C18.1335 32.0123 17.874 31.9877 17.7295 31.8136C17.5849 31.6386 17.6096 31.38 17.7845 31.2346L19.8671 29.5117C20.0191 29.386 20.2383 29.386 20.3903 29.5117L22.4729 31.2346C22.6478 31.38 22.6725 31.6386 22.5279 31.8136C22.4466 31.9113 22.3292 31.9622 22.2109 31.9622Z" fill="white"/>
<path fill-rule="evenodd" clip-rule="evenodd" d="M32.3679 35.1215C32.1412 35.1215 31.9573 34.9375 31.9573 34.7109V29.8278C31.9573 29.6003 32.1412 29.4172 32.3679 29.4172C32.5946 29.4172 32.7785 29.6003 32.7785 29.8278V34.7109C32.7785 34.9375 32.5946 35.1215 32.3679 35.1215Z" fill="white"/>
<path fill-rule="evenodd" clip-rule="evenodd" d="M32.3679 35.1215C32.2751 35.1215 32.1823 35.0903 32.1059 35.027L30.0233 33.3033C29.8484 33.1587 29.8246 32.9001 29.9691 32.7251C30.1136 32.551 30.3723 32.5264 30.5472 32.6709L32.3679 34.1779L34.1886 32.6709C34.3635 32.5264 34.6222 32.551 34.7667 32.7251C34.9113 32.9001 34.8874 33.1587 34.7125 33.3033L32.6299 35.027C32.5535 35.0903 32.4607 35.1215 32.3679 35.1215Z" fill="white"/>
<path fill-rule="evenodd" clip-rule="evenodd" d="M46.2311 31.0104C46.2311 31.0104 46.2303 31.0104 46.2295 31.0104H42.0108C41.8613 31.0104 41.7234 30.9291 41.6511 30.7977C41.5788 30.6671 41.5838 30.507 41.6634 30.3805L43.8175 26.9691C43.8931 26.85 44.0245 26.7778 44.1649 26.7778H44.169C44.3111 26.7794 44.4425 26.8542 44.5164 26.9757L46.5637 30.3583C46.613 30.4265 46.6417 30.5094 46.6417 30.5998C46.6417 30.8264 46.4578 31.0104 46.2311 31.0104ZM42.7557 30.1892H45.501L44.1575 27.9694L42.7557 30.1892Z" fill="white"/>
<path fill-rule="evenodd" clip-rule="evenodd" d="M44.1649 37.7609C44.0245 37.7609 43.8931 37.6887 43.8175 37.5696L41.6634 34.1582C41.5838 34.0317 41.5788 33.8716 41.6511 33.741C41.7234 33.6096 41.8613 33.5283 42.0108 33.5283H46.2295C46.3781 33.5283 46.5144 33.608 46.5875 33.7377C46.6598 33.8666 46.6573 34.0251 46.581 34.1516L44.5164 37.563C44.4425 37.6845 44.3111 37.7593 44.169 37.7609C44.1674 37.7609 44.1665 37.7609 44.1649 37.7609ZM42.7557 34.3495L44.1575 36.5693L45.501 34.3495H42.7557Z" fill="white"/>
</svg>
