<svg width="60" height="55" viewBox="0 0 60 55" fill="none" xmlns="http://www.w3.org/2000/svg">
<path fill-rule="evenodd" clip-rule="evenodd" d="M5.81696 6.50743C5.53554 6.64688 5.33413 6.84942 5.19871 7.12915L5.09131 7.35096L5.09243 27.4124L5.09356 47.4737L5.19784 47.7038C5.32227 47.9782 5.45534 48.1298 5.73031 48.3104L5.93479 48.4446L6.34376 48.4448L6.75272 48.445L6.90608 48.3462C7.16224 48.1813 7.34433 47.9954 7.46033 47.7804L7.57064 47.576L7.58526 45.058L7.59988 42.5401L11.9049 42.5531L16.21 42.5662L16.2355 45.0711L16.2611 47.576L16.3476 47.7549C16.4608 47.989 16.6228 48.1613 16.8745 48.3153L17.079 48.4404L17.4662 48.4427L17.8534 48.445L18.0988 48.2916L18.3441 48.1383L18.4905 47.9338L18.6368 47.7293L18.6886 47.454L18.7404 47.1786V28.041V8.90344H22.9326H27.1246L27.1116 14.152L27.0986 19.4005L26.7408 19.5121C25.1226 20.0166 23.8065 21.3194 23.2712 22.9465C23.0938 23.4857 23.0351 23.8995 23.0367 24.5974L23.0381 25.1853L23.107 25.5714C23.349 26.9278 24.1764 28.1767 25.3756 28.9957C25.9369 29.3791 26.3576 29.5552 27.3542 29.8244L27.5587 29.8797L28.3255 29.8814L29.0923 29.8832L29.6042 29.7474C30.2319 29.581 30.7982 29.3244 31.3558 28.954L31.7789 28.6728L32.1644 28.263C32.9555 27.422 33.3928 26.5596 33.5915 25.4484L33.6815 24.9446L33.6532 24.4004C33.5871 23.1329 33.1698 22.0614 32.3736 21.1149L32.0764 20.7616L31.6258 20.4174C30.9954 19.9359 30.5258 19.6854 29.8847 19.4888L29.6035 19.4026L29.5905 14.153L29.5775 8.90344H34.3063H39.0352V14.16V19.4167L38.7779 19.476C38.6364 19.5087 38.418 19.5822 38.2924 19.6394C38.1669 19.6966 38.0082 19.7646 37.9398 19.7906C37.8714 19.8167 37.6125 19.97 37.3645 20.1314L36.9137 20.4249L36.5019 20.837C35.2841 22.0556 34.7771 23.5841 34.9997 25.3655L35.0538 25.7987L35.2117 26.255C35.8269 28.034 37.1092 29.2266 38.9585 29.7395L39.4697 29.8812L40.2365 29.8832L41.0033 29.8852L41.5401 29.7424C42.6453 29.4485 43.6052 28.8589 44.2567 28.0736C44.8018 27.4165 44.9783 27.1226 45.2513 26.4171L45.4273 25.9619L45.5028 25.4969C45.5979 24.9104 45.5984 24.3493 45.5043 23.7254C45.4131 23.1199 45.3314 22.8687 45.0148 22.2203L44.7653 21.7091L44.438 21.2967C43.9727 20.7105 43.0589 19.9711 42.5699 19.7852C42.4964 19.7572 42.3626 19.6994 42.2726 19.6567C42.1826 19.614 41.9752 19.5393 41.8118 19.4908L41.5145 19.4026L41.5015 14.153L41.4885 8.90344H45.6806H49.8727V10.9944V13.0853L49.1954 13.1031L48.518 13.1209L48.2165 13.2736L47.915 13.4264L47.7462 13.6826L47.5774 13.9388L47.5442 14.1957L47.5111 14.4526L47.5686 14.6664C47.6003 14.784 47.7005 14.9789 47.7913 15.0996L47.9564 15.319L48.2336 15.4596L48.5108 15.6002H49.1917H49.8727V17.7217V19.8432H49.2524H48.6321L48.4471 19.8987C48.3453 19.9291 48.1719 20.0154 48.0618 20.0904L47.8617 20.2266L47.7042 20.4822L47.5467 20.7378L47.5488 21.1066L47.5509 21.4755L47.7533 21.7661L47.9557 22.0566L48.2113 22.1896L48.4669 22.3225L49.1698 22.3402L49.8727 22.3579V24.4697V26.5815L49.1442 26.599L48.4158 26.6166L48.1881 26.7444L47.9605 26.8722L47.7933 27.0916C47.7014 27.2123 47.6002 27.4076 47.5684 27.5257L47.5106 27.7402L47.5411 27.9622C47.6006 28.3967 47.907 28.8229 48.2682 28.9739L48.4381 29.0448H49.1554H49.8727V31.1663V33.2878L49.2976 33.2884L48.7225 33.289L48.4689 33.3658C48.1207 33.4715 47.9032 33.6291 47.7243 33.9054L47.5727 34.1397L47.5407 34.3734L47.5086 34.6071L47.5714 34.8686L47.6341 35.1302L47.8971 35.4057L48.1602 35.6813L48.3647 35.7367L48.5691 35.7922L49.2209 35.7924L49.8727 35.7927V37.9142V40.0357H49.2674H48.6621L48.4216 40.1081C48.1027 40.2041 47.8719 40.3873 47.6939 40.6855L47.5478 40.9303L47.5472 41.2882L47.5467 41.646L47.6884 41.8871C47.8612 42.181 48.1024 42.3722 48.4216 42.4682L48.6621 42.5406H49.2656H49.869L49.8837 45.0583L49.8983 47.576L50.0086 47.7804C50.1246 47.9954 50.3067 48.1813 50.5628 48.3462L50.7162 48.445L51.1252 48.4448L51.5341 48.4446L51.7386 48.3104C52.0136 48.1298 52.1466 47.9782 52.2711 47.7038L52.3754 47.4737L52.3765 45.0072L52.3776 42.5406H52.9817H53.5859L53.8516 42.4617L54.1171 42.3829L54.3035 42.2193L54.4897 42.0557L54.609 41.7997L54.7281 41.5438L54.7286 41.2889L54.7291 41.034L54.5911 40.7612C54.5152 40.6112 54.3775 40.4221 54.2851 40.341L54.1171 40.1935L53.8516 40.1146L53.5859 40.0357H52.9817H52.3776V37.9142V35.7927L53.055 35.7905L53.7323 35.7882L53.9196 35.7214C54.1733 35.6307 54.3799 35.4548 54.5563 35.1793L54.7036 34.9492L54.7002 34.5658L54.6969 34.1824L54.5589 33.946L54.4208 33.7096L54.2221 33.5719C54.1128 33.4961 53.914 33.4013 53.7802 33.361L53.5371 33.2878H52.9574H52.3776V31.1699V29.0521L53.1652 29.0356L53.9527 29.0193L54.1748 28.8585L54.3969 28.6976L54.5467 28.4543L54.6965 28.2109L54.7193 27.9365L54.742 27.6619L54.6526 27.4279C54.6034 27.2991 54.4914 27.112 54.4037 27.0121L54.2443 26.8305L53.9883 26.7113L53.7323 26.5921L53.055 26.5916L52.3776 26.5911V24.4696V22.3481H52.9684H53.5592L53.7735 22.2935C53.8914 22.2636 54.0794 22.1765 54.1913 22.1001L54.3946 21.9613L54.5491 21.7112L54.7036 21.461L54.7026 21.0994L54.7015 20.7378L54.5559 20.493C54.3861 20.2073 54.1706 20.0294 53.863 19.9209L53.6428 19.8432H53.0102H52.3776V17.7217V15.6002L53.055 15.5997L53.7323 15.5992L53.9883 15.48L54.2443 15.3608L54.4037 15.1792C54.4914 15.0792 54.6037 14.8914 54.6533 14.7617L54.7434 14.5258L54.7148 14.249L54.6862 13.9723L54.512 13.6999L54.3378 13.4276L54.035 13.2742L53.7323 13.1209L53.055 13.1031L52.3776 13.0853V10.2357V7.38613L52.2223 7.07532L52.067 6.76451L51.8017 6.59433L51.5365 6.4241L28.7868 6.41127L6.03703 6.39844L5.81696 6.50743ZM16.2355 10.9994V13.0953H11.9159H7.5962V10.9994V8.90344H11.9159H16.2355V10.9994ZM16.2233 17.7345L16.2367 19.8432H11.9164H7.5962V17.7214V15.5996L11.9031 15.6127L16.21 15.6258L16.2233 17.7345ZM28.7518 21.7865L29.1269 21.8352L29.4419 21.974C30.2776 22.3424 30.8643 23.0388 31.0903 23.9305L31.174 24.2605L31.152 24.7229L31.1302 25.1853L31.0092 25.5175C30.8499 25.955 30.5694 26.366 30.2139 26.6829L29.9252 26.9402L29.5375 27.1268L29.1498 27.3134L28.7504 27.3716L28.3511 27.4298L27.9293 27.3692L27.5076 27.3086L27.0796 27.0977L26.6518 26.8867L26.3384 26.5688L26.0251 26.2509L25.8348 25.8714L25.6445 25.492L25.5557 25.0151L25.4669 24.5382L25.5559 24.0949L25.6448 23.6517L25.8079 23.3194L25.9708 22.9871L26.3625 22.5908L26.7543 22.1944L27.1481 22.0149L27.5419 21.8354L27.8826 21.7915C28.3473 21.7316 28.3294 21.7317 28.7518 21.7865ZM40.6615 21.7876L41.0839 21.8406L41.4531 22.0158L41.8223 22.1911L42.118 22.4546C42.2805 22.5995 42.5011 22.8476 42.6081 23.0059L42.8027 23.2938L42.9471 23.7283L43.0915 24.1629L43.0881 24.6229L43.0848 25.083L42.9561 25.4487C42.567 26.5554 41.6326 27.2952 40.5034 27.3906L40.1315 27.4221L39.7672 27.3606L39.403 27.2992L39.0907 27.1515C38.3038 26.7793 37.7785 26.1666 37.555 25.36L37.4505 24.9828V24.5718V24.1608L37.555 23.7836C37.6931 23.2852 37.8606 23.0108 38.2932 22.5738L38.6518 22.2115L39.0512 22.0236L39.4505 21.8357L39.7924 21.7916C39.9804 21.7674 40.1579 21.7447 40.1867 21.7411C40.2156 21.7376 40.4293 21.7585 40.6615 21.7876ZM16.2233 24.4568L16.21 26.5655L11.9031 26.5786L7.5962 26.5916V24.4699V22.3481H11.9164H16.2367L16.2233 24.4568ZM16.2233 31.1791L16.2367 33.2878H11.9164H7.5962V31.166V29.0443L11.9031 29.0573L16.21 29.0704L16.2233 31.1791ZM16.2233 37.9014L16.21 40.0102L11.9031 40.0232L7.5962 40.0363V37.9145V35.7927H11.9164H16.2367L16.2233 37.9014Z" fill="#ECE7E3"/>
</svg>
