<svg width="60" height="56" viewBox="0 0 60 56" fill="none" xmlns="http://www.w3.org/2000/svg">
<path d="M52.4597 6.86621H20.8665C16.5873 6.86621 13.1053 11.8218 13.1053 17.9134C13.1053 17.9177 13.1077 17.9213 13.1078 17.9256C13.1113 23.791 16.348 28.5872 20.4124 28.925V34.775H14.1311V30.2885C14.1311 28.9571 13.048 27.8741 11.7166 27.8741H7.7331L7.7331 26.6989C7.7331 26.399 7.48974 26.1556 7.18979 26.1556C6.88984 26.1556 6.64649 26.399 6.64649 26.6989L6.64648 48.3682C6.64648 48.6681 6.88984 48.9115 7.18979 48.9115C7.48974 48.9115 7.7331 48.6681 7.7331 48.3682L7.7331 47.7606H11.7166C13.048 47.7606 14.1311 46.6775 14.1311 45.3462V40.8122H20.4124V41.7439C20.4124 43.0753 21.4954 44.1584 22.8268 44.1584H26.0131C27.3438 44.1584 28.4268 43.0753 28.4268 41.7439V28.9578H41.5249C45.8034 28.9578 49.2847 24.0044 49.2847 17.9163C49.2847 16.2735 49.0321 14.6792 48.5595 13.2324C53.2986 11.134 53.0159 7.51456 53.0001 7.35645C52.9739 7.09101 52.7016 6.86621 52.4597 6.86621ZM45.7681 9.36131L45.765 9.36379C45.7616 9.36653 45.7573 9.36697 45.7539 9.3698C45.751 9.37228 45.7499 9.37599 45.747 9.37847C44.2468 10.5326 43.2617 11.8566 42.6999 12.7662C42.2019 13.5712 41.3481 14.0516 40.4164 14.0516H37.2796C36.418 14.0516 35.5754 14.3515 34.9076 14.8948C34.8254 14.9617 32.4896 16.8602 32.5986 16.7716C32.1232 17.1579 31.5254 17.3701 30.9142 17.3701H14.2126C14.3672 13.1262 16.6625 7.95352 20.8672 7.95352C21.8519 7.95349 42.2544 7.95296 48.1238 7.95281C47.289 8.32988 46.5024 8.79961 45.7681 9.36131ZM39.4845 15.1382H40.4164C41.4138 15.1382 42.3449 14.7468 43.0412 14.0639C43.5785 14.9109 44.0518 16.234 44.0518 17.9092C44.0518 20.9335 42.5309 22.9404 41.5249 22.9404C40.5189 22.9404 38.998 20.9335 38.998 17.9092C38.998 16.9179 39.1712 15.9721 39.4845 15.1382ZM13.0445 45.3462C13.0445 46.0784 12.4488 46.674 11.7166 46.674H7.7331V28.9607H11.7166C12.4488 28.9607 13.0445 29.5563 13.0445 30.2885V45.3462ZM14.1311 39.7256V35.8617H20.4124V39.7256H14.1311ZM27.3402 41.7439C27.3402 42.4761 26.7446 43.0718 26.0131 43.0718H22.8268C22.0946 43.0718 21.499 42.4761 21.499 41.7439C21.499 37.2132 21.499 33.3967 21.499 28.9607H27.3402V41.7439ZM38.1696 27.8712H20.8672C17.3102 27.8712 14.4023 23.6938 14.2124 18.4567H30.9142C31.7737 18.4567 32.6155 18.1575 33.2834 17.6149L33.788 17.2048C33.7775 17.4421 33.7658 17.6797 33.7658 17.9163C33.7658 21.5953 35.1524 25.8015 38.1696 27.8712ZM41.5249 27.8712C37.8456 27.8712 34.8524 23.4052 34.8524 17.9163C34.8524 17.3522 34.89 16.7969 34.9542 16.2571L35.5938 15.7374C36.0685 15.3511 36.667 15.1382 37.2796 15.1382H38.3268C38.0554 15.9952 37.9113 16.9375 37.9113 17.9092C37.9113 21.1683 39.6 24.027 41.5249 24.027C43.4498 24.027 45.1385 21.1683 45.1385 17.9092C45.1385 16.0757 44.618 14.3408 43.7382 13.1596C44.2092 12.4276 44.948 11.4644 46.007 10.5672C47.3996 12.4626 48.1981 15.0998 48.1981 17.9163C48.1981 23.4052 45.2043 27.8712 41.5249 27.8712ZM48.1793 12.2152C47.824 11.3709 47.3806 10.6014 46.8718 9.91064C48.3391 8.89884 50.0225 8.26507 51.891 8.02162C51.762 8.96728 51.1153 10.892 48.1793 12.2152Z" fill="white"/>
<path d="M34.3063 9.63013H28.9235C28.6235 9.63013 28.3802 9.87349 28.3802 10.1734C28.3802 10.4734 28.6235 10.7167 28.9235 10.7167H34.3063C34.6062 10.7167 34.8496 10.4734 34.8496 10.1734C34.8496 9.87349 34.6062 9.63013 34.3063 9.63013Z" fill="white"/>
<path d="M26.4941 9.63013H26.2423C25.9423 9.63013 25.699 9.87349 25.699 10.1734C25.699 10.4734 25.9423 10.7167 26.2423 10.7167H26.4941C26.7941 10.7167 27.0374 10.4734 27.0374 10.1734C27.0374 9.87349 26.7941 9.63013 26.4941 9.63013Z" fill="white"/>
</svg>
