<svg width="60" height="55" viewBox="0 0 60 55" fill="none" xmlns="http://www.w3.org/2000/svg">
<mask id="path-1-inside-1_57_577" fill="white">
<path d="M50.6477 21.1584H50.6364L33.4655 13.5961V11.2385H34.1443C34.4665 11.2402 34.7797 11.1326 35.0329 10.9333C35.286 10.7341 35.4642 10.4549 35.5382 10.1413C35.6122 9.82775 35.5778 9.49836 35.4405 9.2069C35.3032 8.91544 35.0712 8.67912 34.7823 8.53651L30.5825 6.45845C30.384 6.36083 30.1658 6.31006 29.9445 6.31006C29.7233 6.31006 29.5051 6.36083 29.3066 6.45845L25.1068 8.53651C24.8179 8.67912 24.5858 8.91544 24.4486 9.2069C24.3113 9.49836 24.2768 9.82775 24.3509 10.1413C24.4249 10.4549 24.6031 10.7341 24.8562 10.9333C25.1094 11.1326 25.4226 11.2402 25.7448 11.2385H26.4236V13.5961L9.25123 21.1521H9.23997C9.11405 21.2073 9.00707 21.2983 8.93223 21.4137C8.8574 21.529 8.81799 21.6638 8.81886 21.8013V23.9139C8.81886 24.2874 8.96724 24.6456 9.23137 24.9098C9.49549 25.1739 9.85372 25.3223 10.2272 25.3223H10.9314V43.6312H10.2272C9.85372 43.6312 9.49549 43.7796 9.23137 44.0437C8.96724 44.3078 8.81886 44.6661 8.81886 45.0396V47.1521C8.81886 47.5257 8.96724 47.8839 9.23137 48.148C9.49549 48.4121 9.85372 48.5605 10.2272 48.5605H49.6618C50.0354 48.5605 50.3936 48.4121 50.6577 48.148C50.9218 47.8839 51.0702 47.5257 51.0702 47.1521V45.0396C51.0702 44.6661 50.9218 44.3078 50.6577 44.0437C50.3936 43.7796 50.0354 43.6312 49.6618 43.6312H48.9577V25.3223H49.6618C50.0354 25.3223 50.3936 25.1739 50.6577 24.9098C50.9218 24.6456 51.0702 24.2874 51.0702 23.9139V21.8013C51.0697 21.6647 51.0296 21.5312 50.9545 21.4171C50.8795 21.3029 50.7729 21.213 50.6477 21.1584ZM32.6134 14.7594L47.0176 21.0971H12.8715L27.2757 14.7594H32.6134ZM25.7314 9.79912L29.9565 7.72106L34.1556 9.79912L34.1443 9.83011L25.7314 9.79912ZM32.0571 11.2385V13.3511H27.832V11.2385H32.0571ZM12.3398 25.3223H13.7482V43.6312H12.3398V25.3223ZM42.62 43.6312V35.1809H44.7325V43.6312H42.62ZM39.099 35.1809H41.2116V43.6312H39.099V35.1809ZM44.7325 33.7725H39.099V25.3223H44.7325V33.7725ZM37.6906 43.6312H36.2822V25.3223H37.6906V43.6312ZM34.8739 43.6312H25.0152V25.3223H34.8739V43.6312ZM23.6068 43.6312H22.1985V25.3223H23.6068V43.6312ZM15.1566 35.1809H17.2691V43.6312H15.1566V35.1809ZM18.6775 35.1809H20.7901V43.6312H18.6775V35.1809ZM20.7901 33.7725H15.1566V25.3223H20.7901V33.7725ZM49.6618 47.1521H10.2272V45.0396H49.6618V47.1521ZM47.5493 43.6312H46.1409V25.3223H47.5493V43.6312ZM10.2272 23.9139V22.5055H49.6618V23.9139H10.2272Z"/>
</mask>
<path d="M50.6477 21.1584H50.6364L33.4655 13.5961V11.2385H34.1443C34.4665 11.2402 34.7797 11.1326 35.0329 10.9333C35.286 10.7341 35.4642 10.4549 35.5382 10.1413C35.6122 9.82775 35.5778 9.49836 35.4405 9.2069C35.3032 8.91544 35.0712 8.67912 34.7823 8.53651L30.5825 6.45845C30.384 6.36083 30.1658 6.31006 29.9445 6.31006C29.7233 6.31006 29.5051 6.36083 29.3066 6.45845L25.1068 8.53651C24.8179 8.67912 24.5858 8.91544 24.4486 9.2069C24.3113 9.49836 24.2768 9.82775 24.3509 10.1413C24.4249 10.4549 24.6031 10.7341 24.8562 10.9333C25.1094 11.1326 25.4226 11.2402 25.7448 11.2385H26.4236V13.5961L9.25123 21.1521H9.23997C9.11405 21.2073 9.00707 21.2983 8.93223 21.4137C8.8574 21.529 8.81799 21.6638 8.81886 21.8013V23.9139C8.81886 24.2874 8.96724 24.6456 9.23137 24.9098C9.49549 25.1739 9.85372 25.3223 10.2272 25.3223H10.9314V43.6312H10.2272C9.85372 43.6312 9.49549 43.7796 9.23137 44.0437C8.96724 44.3078 8.81886 44.6661 8.81886 45.0396V47.1521C8.81886 47.5257 8.96724 47.8839 9.23137 48.148C9.49549 48.4121 9.85372 48.5605 10.2272 48.5605H49.6618C50.0354 48.5605 50.3936 48.4121 50.6577 48.148C50.9218 47.8839 51.0702 47.5257 51.0702 47.1521V45.0396C51.0702 44.6661 50.9218 44.3078 50.6577 44.0437C50.3936 43.7796 50.0354 43.6312 49.6618 43.6312H48.9577V25.3223H49.6618C50.0354 25.3223 50.3936 25.1739 50.6577 24.9098C50.9218 24.6456 51.0702 24.2874 51.0702 23.9139V21.8013C51.0697 21.6647 51.0296 21.5312 50.9545 21.4171C50.8795 21.3029 50.7729 21.213 50.6477 21.1584ZM32.6134 14.7594L47.0176 21.0971H12.8715L27.2757 14.7594H32.6134ZM25.7314 9.79912L29.9565 7.72106L34.1556 9.79912L34.1443 9.83011L25.7314 9.79912ZM32.0571 11.2385V13.3511H27.832V11.2385H32.0571ZM12.3398 25.3223H13.7482V43.6312H12.3398V25.3223ZM42.62 43.6312V35.1809H44.7325V43.6312H42.62ZM39.099 35.1809H41.2116V43.6312H39.099V35.1809ZM44.7325 33.7725H39.099V25.3223H44.7325V33.7725ZM37.6906 43.6312H36.2822V25.3223H37.6906V43.6312ZM34.8739 43.6312H25.0152V25.3223H34.8739V43.6312ZM23.6068 43.6312H22.1985V25.3223H23.6068V43.6312ZM15.1566 35.1809H17.2691V43.6312H15.1566V35.1809ZM18.6775 35.1809H20.7901V43.6312H18.6775V35.1809ZM20.7901 33.7725H15.1566V25.3223H20.7901V33.7725ZM49.6618 47.1521H10.2272V45.0396H49.6618V47.1521ZM47.5493 43.6312H46.1409V25.3223H47.5493V43.6312ZM10.2272 23.9139V22.5055H49.6618V23.9139H10.2272Z" fill="#ECE7E3" stroke="#ECE7E3" stroke-width="0.893882" mask="url(#path-1-inside-1_57_577)"/>
</svg>
