<svg width="59" height="56" viewBox="0 0 59 56" fill="none" xmlns="http://www.w3.org/2000/svg">
<path d="M26.5188 27.86L26.474 27.7706L26.5188 27.86C27.5022 27.3682 28.1235 26.3631 28.1235 25.2635V18.7522C28.1235 18.0334 28.7062 17.4507 29.425 17.4507C30.1438 17.4507 30.7265 18.0334 30.7265 18.7522V25.2635C30.7265 27.349 29.5482 29.2555 27.6828 30.1882L27.7276 30.2776L27.6828 30.1882L27.204 30.4277C26.5611 30.7491 25.7793 30.4885 25.4578 29.8455C25.1364 29.2027 25.397 28.4208 26.0399 28.0994L26.5188 27.86ZM8.50234 12.4454C8.50234 9.40449 10.9675 6.93936 14.0084 6.93936H19.6144C20.3332 6.93936 20.9159 7.52206 20.9159 8.24087C20.9159 8.95967 20.3332 9.54237 19.6144 9.54237H14.0084C12.4051 9.54237 11.1054 10.8421 11.1054 12.4454V18.0514C11.1054 18.7703 10.5227 19.3529 9.80385 19.3529C9.08505 19.3529 8.50234 18.7703 8.50234 18.0514V12.4454ZM20.858 35.8476L20.792 35.9228L20.858 35.8476C20.3178 35.3734 20.2644 34.5511 20.7386 34.0109C21.2128 33.4707 22.0352 33.4173 22.5754 33.8915C26.3413 37.1976 32.5086 37.1976 36.2746 33.8915C36.8148 33.4173 37.6372 33.4707 38.1114 34.0109C38.5856 34.5511 38.5321 35.3734 37.992 35.8476C33.2436 40.0162 25.6064 40.0162 20.858 35.8476ZM37.934 8.24087C37.934 7.52206 38.5167 6.93936 39.2356 6.93936H44.8416C47.8825 6.93936 50.3476 9.40449 50.3476 12.4454V18.0514C50.3476 18.7703 49.7649 19.3529 49.0461 19.3529C48.3273 19.3529 47.7446 18.7703 47.7446 18.0514V12.4454C47.7446 10.8421 46.4449 9.54237 44.8416 9.54237H39.2356C38.5167 9.54237 37.934 8.95967 37.934 8.24087ZM9.80385 36.3711C10.5227 36.3711 11.1054 36.9537 11.1054 37.6726V43.2786C11.1054 44.8819 12.4051 46.1816 14.0084 46.1816H19.6144C20.3332 46.1816 20.9159 46.7643 20.9159 47.4831C20.9159 48.202 20.3332 48.7846 19.6144 48.7846H14.0084C10.9675 48.7846 8.50234 46.3195 8.50234 43.2786V37.6726C8.50234 36.9537 9.08505 36.3711 9.80385 36.3711ZM49.0461 36.3711C49.7649 36.3711 50.3476 36.9537 50.3476 37.6726V43.2786C50.3476 46.3195 47.8825 48.7846 44.8416 48.7846H39.2356C38.5167 48.7846 37.934 48.202 37.934 47.4831C37.934 46.7643 38.5167 46.1816 39.2356 46.1816H44.8416C46.4449 46.1816 47.7446 44.8819 47.7446 43.2786V37.6726C47.7446 36.9537 48.3273 36.3711 49.0461 36.3711ZM20.3152 17.4507C21.034 17.4507 21.6167 18.0334 21.6167 18.7522V21.5552C21.6167 22.274 21.034 22.8567 20.3152 22.8567C19.5964 22.8567 19.0137 22.274 19.0137 21.5552V18.7522C19.0137 18.0334 19.5964 17.4507 20.3152 17.4507ZM38.5348 17.4507C39.2536 17.4507 39.8363 18.0334 39.8363 18.7522V21.5552C39.8363 22.274 39.2536 22.8567 38.5348 22.8567C37.816 22.8567 37.2333 22.274 37.2333 21.5552V18.7522C37.2333 18.0334 37.816 17.4507 38.5348 17.4507Z" fill="white" stroke="white" stroke-width="0.2"/>
</svg>
