<svg width="96" height="68" viewBox="0 0 96 68" fill="none" xmlns="http://www.w3.org/2000/svg">
<path d="M94.1693 31.392H92.4145V27.8276C92.9944 27.8631 93.5793 27.8823 94.1693 27.8823C95.0245 27.8823 95.7177 27.189 95.7177 26.3339C95.7177 25.4788 95.0245 24.7855 94.1693 24.7855C82.2731 24.7855 72.595 16.5891 72.595 6.51439V1.55951C72.595 0.704378 71.9017 0.0111084 71.0466 0.0111084C70.1914 0.0111084 69.4982 0.704378 69.4982 1.55951V6.51439C69.4982 16.5891 59.8201 24.7855 47.9238 24.7855C36.0276 24.7855 26.3494 16.5891 26.3494 6.51439V1.55951C26.3494 0.704378 25.6562 0.0111084 24.801 0.0111084C23.9459 0.0111084 23.2526 0.704378 23.2526 1.55951V6.51439C23.2526 16.5891 13.5745 24.7855 1.67828 24.7855C0.823153 24.7855 0.129883 25.4788 0.129883 26.3339C0.129883 27.189 0.823153 27.8823 1.67828 27.8823C2.26833 27.8823 2.85321 27.8631 3.43313 27.8276V31.392H1.67828C0.823153 31.392 0.129883 32.0853 0.129883 32.9404C0.129883 33.7955 0.823153 34.4888 1.67828 34.4888H94.1693C95.0245 34.4888 95.7177 33.7955 95.7177 32.9404C95.7177 32.0853 95.0245 31.392 94.1693 31.392ZM89.3177 31.392H85.808V26.618C86.9418 26.9729 88.1141 27.2576 89.3177 27.4663V31.392ZM82.7112 31.392H79.2015V23.4881C80.3025 24.2182 81.476 24.8695 82.7112 25.4331V31.392ZM76.1047 21.0508V31.392H72.595V16.8688C73.569 18.3852 74.7499 19.7887 76.1047 21.0508ZM69.4982 16.8688V31.392H65.9885V21.0508C67.3432 19.7887 68.5241 18.3852 69.4982 16.8688ZM59.382 25.4331C60.6172 24.8697 61.7906 24.2182 62.8917 23.4881V31.392H59.382V25.4331ZM56.2852 31.392H52.7755V27.4665C53.9791 27.2578 55.1513 26.9731 56.2852 26.6182V31.392ZM49.6787 27.8276V31.392H46.169V27.8276C46.7489 27.8631 47.3338 27.8823 47.9238 27.8823C48.5139 27.8823 49.0987 27.8631 49.6787 27.8276ZM39.5625 26.618C40.6963 26.9729 41.8685 27.2576 43.0722 27.4663V31.392H39.5625V26.618ZM36.4657 31.392H32.9559V23.4881C34.057 24.2182 35.2304 24.8695 36.4657 25.4331V31.392ZM29.8591 21.0508V31.392H26.3494V16.8688C27.3235 18.3852 28.5044 19.7887 29.8591 21.0508ZM23.2526 16.8688V31.392H19.7429V21.0508C21.0977 19.7887 22.2786 18.3852 23.2526 16.8688ZM16.6461 31.392H13.1364V25.4331C14.3716 24.8697 15.5451 24.2182 16.6461 23.4881V31.392ZM6.52993 27.4665C7.73356 27.2578 8.9058 26.9731 10.0396 26.6182V31.392H6.52993V27.4665Z" fill="white"/>
<path d="M94.1693 41.0953C95.0245 41.0953 95.7177 40.402 95.7177 39.5469C95.7177 38.6918 95.0245 37.9985 94.1693 37.9985H1.67828C0.823153 37.9985 0.129883 38.6918 0.129883 39.5469C0.129883 40.402 0.823153 41.0953 1.67828 41.0953H23.2526V44.605H23.1494C21.3849 44.605 19.9494 46.0405 19.9494 47.805V51.2115H1.67828C0.823153 51.2115 0.129883 51.9048 0.129883 52.7599C0.129883 53.615 0.823153 54.3083 1.67828 54.3083H94.1693C95.0245 54.3083 95.7177 53.615 95.7177 52.7599C95.7177 51.9048 95.0245 51.2115 94.1693 51.2115H75.8982V47.805C75.8982 46.0405 74.4628 44.605 72.6982 44.605H72.595V41.0953H94.1693ZM23.0462 47.805C23.0462 47.7481 23.0924 47.7018 23.1494 47.7018H26.4527C26.5097 47.7018 26.5559 47.7481 26.5559 47.805V51.2115H23.0462V47.805ZM72.8014 47.805V51.2115H69.2917V47.805C69.2917 47.7481 69.338 47.7018 69.3949 47.7018H72.6982C72.7552 47.7018 72.8014 47.7481 72.8014 47.805ZM69.4982 44.605H69.3949C67.6304 44.605 66.1949 46.0405 66.1949 47.805V51.2115H29.6527V47.805C29.6527 46.0405 28.2172 44.605 26.4527 44.605H26.3494V41.0953H69.4982V44.605Z" fill="white"/>
<path d="M64.4401 57.818H34.7108C33.8557 57.818 33.1624 58.5113 33.1624 59.3664C33.1624 60.2215 33.8557 60.9148 34.7108 60.9148H64.4401C65.2952 60.9148 65.9885 60.2215 65.9885 59.3664C65.9885 58.5113 65.2952 57.818 64.4401 57.818Z" fill="white"/>
<path d="M28.1043 57.818H14.8913C14.0362 57.818 13.3429 58.5113 13.3429 59.3664C13.3429 60.2215 14.0362 60.9148 14.8913 60.9148H28.1043C28.9594 60.9148 29.6527 60.2215 29.6527 59.3664C29.6527 58.5113 28.9596 57.818 28.1043 57.818Z" fill="white"/>
<path d="M74.3498 57.818H71.0466C70.1914 57.818 69.4982 58.5113 69.4982 59.3664C69.4982 60.2215 70.1914 60.9148 71.0466 60.9148H74.3498C75.2049 60.9148 75.8982 60.2215 75.8982 59.3664C75.8982 58.5113 75.2049 57.818 74.3498 57.818Z" fill="white"/>
<path d="M61.1368 64.4245H44.6208C43.7656 64.4245 43.0724 65.1178 43.0724 65.9729C43.0724 66.828 43.7656 67.5213 44.6208 67.5213H61.1368C61.9919 67.5213 62.6852 66.828 62.6852 65.9729C62.6852 65.1178 61.9919 64.4245 61.1368 64.4245Z" fill="white"/>
<path d="M38.0143 64.4245H34.7108C33.8557 64.4245 33.1624 65.1178 33.1624 65.9729C33.1624 66.828 33.8557 67.5213 34.7108 67.5213H38.0143C38.8694 67.5213 39.5627 66.828 39.5627 65.9729C39.5627 65.1178 38.8694 64.4245 38.0143 64.4245Z" fill="white"/>
</svg>
