<svg width="67" height="45" viewBox="0 0 67 45" fill="none" xmlns="http://www.w3.org/2000/svg">
<path d="M66.4077 13.3701C66.249 12.9065 65.6867 12.546 65.2172 12.546C63.1843 12.546 61.1516 12.546 59.1187 12.546C58.6494 12.546 58.0869 12.9065 57.9281 13.3701C57.7728 13.8238 57.6568 14.2286 57.5797 14.6093L53.506 3.29795C52.8341 1.43272 51.0546 0.179565 49.0786 0.179565H17.9215C15.9454 0.179565 14.1662 1.43272 13.494 3.29829L9.42011 14.6107C9.34282 14.2296 9.22681 13.8243 9.07139 13.3701C8.91275 12.9065 8.35027 12.546 7.88096 12.546C5.84816 12.546 3.81536 12.546 1.7824 12.546C1.31309 12.546 0.750606 12.9065 0.591973 13.3701C-0.0256466 15.1749 -0.0253083 16.208 0.592142 18.013C0.750775 18.4766 1.31326 18.8371 1.78256 18.8371C3.81553 18.8371 5.84833 18.8371 7.88113 18.8371C7.88688 18.8371 7.89297 18.8356 7.89889 18.8354L7.80689 19.0912C6.56336 19.5058 5.66552 20.6808 5.66552 22.0682V31.5403V32.3209V42.8024C5.66552 43.6356 6.33827 44.3109 7.16847 44.3109H14.7326C15.5626 44.3109 16.2356 43.6356 16.2356 42.8024V35.4593H50.7644V42.8024C50.7644 43.6356 51.4373 44.3109 52.2674 44.3109H59.8315C60.6617 44.3109 61.3345 43.6356 61.3345 42.8024V32.3209V31.5403V22.0682C61.3345 20.6811 60.437 19.5064 59.1939 19.0914L59.1018 18.8354C59.1073 18.8356 59.1133 18.8369 59.1188 18.8369C61.1518 18.8369 63.1844 18.8369 65.2174 18.8369C65.6869 18.8369 66.2492 18.4764 66.4078 18.0129C67.0253 16.2081 67.0249 15.1749 66.4077 13.3701ZM18.497 5.7306H48.4989L53.2525 18.9296H13.7436L18.497 5.7306ZM19.3338 28.2279H13.0057C11.6481 28.2279 10.5476 27.1234 10.5476 25.7608C10.5476 24.3983 11.6479 23.2937 13.0057 23.2937H19.3338C20.6913 23.2937 21.7919 24.3981 21.7919 25.7608C21.7921 27.1234 20.6913 28.2279 19.3338 28.2279ZM53.9937 28.2279H47.6657C46.3082 28.2279 45.2075 27.1234 45.2075 25.7608C45.2075 24.3983 46.3082 23.2937 47.6657 23.2937H53.9937C55.3514 23.2937 56.4519 24.3981 56.4519 25.7608C56.4519 27.1234 55.3514 28.2279 53.9937 28.2279Z" fill="#434343"/>
</svg>
