<svg width="30" height="47" viewBox="0 0 30 47" fill="none" xmlns="http://www.w3.org/2000/svg">
<path d="M27.9659 22.3964L22.5421 19.7268L21.1597 17.9956V24.4999L25.9337 25.9193C27.1496 26.3628 28.5313 25.7821 28.9177 24.6653C29.2153 23.8047 28.8248 22.8735 27.9659 22.3964Z" fill="#434343"/>
<path d="M10.3194 30.2191C9.87122 29.8927 9.48842 29.5117 9.15212 29.1016L8.64689 34.4245L2.09518 42.6323C1.2842 43.483 1.37154 44.7507 2.29311 45.5071C3.19375 46.2462 4.58314 46.2425 5.47869 45.4986L12.0697 38.7742C12.9131 37.9139 13.5542 36.912 13.9552 35.8278L14.8186 33.4935L10.3194 30.2191Z" fill="#434343"/>
<path d="M15.2575 10.5602C18.2515 10.5602 20.6787 8.40238 20.6787 5.74051C20.6787 3.07864 18.2515 0.920776 15.2575 0.920776C12.2635 0.920776 9.83643 3.07864 9.83643 5.74051C9.83643 8.40238 12.2635 10.5602 15.2575 10.5602Z" fill="#434343"/>
<path d="M13.5293 12.1993H14.4595C17.2358 12.1993 19.4864 14.2003 19.4864 16.6686V24.6345C19.4864 25.6475 19.9391 26.6191 20.7448 27.3354L24.2146 30.4203C25.4548 31.5229 26.3188 32.9149 26.7069 34.4355L29.0346 43.5552C29.2605 44.8738 28.1125 46.0616 26.6122 46.0616C25.5095 46.0616 24.5426 45.4067 24.2499 44.4615L20.6785 35.7579L11.7111 29.2298C10.276 28.185 9.47478 26.6025 9.54662 24.9546L9.81339 18.8356L6.61442 21.1379L5.54633 25.9334C5.29534 27.0603 4.06092 27.7905 2.79489 27.5609C1.57312 27.3393 0.764081 26.3018 0.95917 25.2069L1.93886 19.7084C2.16135 18.4597 2.9261 17.3384 4.06869 16.5857L8.47605 13.6824C9.93814 12.7193 11.7097 12.1993 13.5293 12.1993Z" fill="#434343"/>
</svg>
