<svg width="96" height="88" viewBox="0 0 96 88" fill="none" xmlns="http://www.w3.org/2000/svg">
<path d="M94.0384 84.7491H90.989V46.124H94.0384C94.5442 46.124 95.0099 45.8484 95.2535 45.4049C95.4969 44.9614 95.4793 44.4204 95.2078 43.9937L84.8585 27.7305C84.604 27.3305 84.1631 27.0884 83.689 27.0884H56.172L49.5917 20.5083V15.076H62.9904C63.5016 15.076 63.9714 14.7947 64.2125 14.344C64.4537 13.8934 64.4273 13.3464 64.1436 12.9211L61.6993 9.25452L64.1438 5.5879C64.4275 5.16265 64.4537 4.61562 64.2127 4.16505C63.9714 3.7143 63.5016 3.43302 62.9904 3.43302H49.5917V1.86214C49.5917 1.09666 48.9711 0.476074 48.2056 0.476074C47.4402 0.476074 46.8196 1.09666 46.8196 1.86214V20.5083L40.2392 27.0886H12.7222C12.2484 27.0886 11.8073 27.3307 11.5528 27.7307L1.20345 43.9939C0.931962 44.4206 0.914405 44.9615 1.1578 45.4051C1.40138 45.8484 1.8671 46.124 2.37292 46.124H5.42227V84.7491H2.37292C1.60744 84.7491 0.986851 85.3697 0.986851 86.1352C0.986851 86.9007 1.60744 87.5213 2.37292 87.5213H94.0384C94.8038 87.5213 95.4244 86.9007 95.4244 86.1352C95.4244 85.3697 94.8038 84.7491 94.0384 84.7491ZM82.9282 29.8608L91.5135 43.3518H72.4352L58.9442 29.8608H82.9282ZM60.4005 6.20516L58.88 8.48571C58.5696 8.95125 58.5696 9.55779 58.88 10.0233L60.4005 12.3039H49.5917V6.20516H60.4005ZM13.4831 29.8608H37.4669L23.9758 43.3518H4.89797L13.4831 29.8608ZM8.19441 46.124H24.5497C24.5955 46.124 24.6413 46.1216 24.6872 46.117C24.7068 46.1151 24.726 46.1114 24.7454 46.1087C24.7707 46.105 24.796 46.102 24.8213 46.097C24.8439 46.0926 24.8657 46.0863 24.8879 46.0807C24.9095 46.0754 24.9313 46.0704 24.9527 46.0641C24.9745 46.0575 24.9958 46.0491 25.0172 46.0416C25.0385 46.034 25.0597 46.027 25.0808 46.0183C25.101 46.01 25.1202 46.0002 25.1398 45.9909C25.161 45.9808 25.1826 45.9713 25.2035 45.9601C25.2226 45.9499 25.2405 45.9383 25.259 45.9274C25.2793 45.9153 25.3 45.9037 25.3198 45.8904C25.3405 45.8765 25.3599 45.8612 25.3797 45.8462C25.3959 45.834 25.4127 45.8228 25.4284 45.8096C25.4639 45.7806 25.4979 45.7499 25.5303 45.7174L48.2056 23.0424L70.881 45.7176C70.9133 45.7499 70.9475 45.7806 70.9828 45.8098C70.9985 45.8227 71.0152 45.834 71.0314 45.8462C71.0514 45.8612 71.071 45.8767 71.0917 45.8906C71.1113 45.9037 71.1318 45.9152 71.1519 45.9272C71.1706 45.9384 71.1887 45.9501 71.2079 45.9603C71.2286 45.9713 71.2499 45.9808 71.2711 45.9907C71.2909 46.0002 71.3105 46.01 71.3308 46.0185C71.3515 46.027 71.3726 46.0338 71.3935 46.0414C71.4151 46.0491 71.4365 46.0575 71.4587 46.0643C71.4798 46.0708 71.5012 46.0754 71.5225 46.0807C71.545 46.0865 71.5672 46.0928 71.5901 46.0972C71.6145 46.102 71.6391 46.1049 71.6637 46.1085C71.6838 46.1114 71.7038 46.1151 71.7243 46.1172C71.7698 46.1216 71.8154 46.124 71.861 46.124H88.2169V84.7491H58.4626V65.4366C58.4626 63.0418 56.5143 61.0935 54.1195 61.0935H42.2917C39.897 61.0935 37.9487 63.0418 37.9487 65.4366V84.7491H8.19441V46.124ZM55.6904 67.0074H40.7209V65.4366C40.7209 64.5704 41.4255 63.8657 42.2917 63.8657H54.1195C54.9857 63.8657 55.6904 64.5704 55.6904 65.4366V67.0074ZM40.7209 69.7796H46.8196V84.7491H40.7209V69.7796ZM49.5917 69.7796H55.6904V84.7491H49.5917V69.7796Z" fill="white"/>
<path d="M48.2056 56.4733C53.8614 56.4733 58.4626 51.8721 58.4626 46.2164C58.4626 40.5607 53.8614 35.9595 48.2056 35.9595C42.5499 35.9595 37.9487 40.5607 37.9487 46.2164C37.9487 51.8721 42.5499 56.4733 48.2056 56.4733ZM48.2056 38.7316C52.3328 38.7316 55.6904 42.0892 55.6904 46.2164C55.6904 50.3436 52.3328 53.7012 48.2056 53.7012C44.0785 53.7012 40.7209 50.3436 40.7209 46.2164C40.7209 42.0892 44.0785 38.7316 48.2056 38.7316Z" fill="white"/>
<path d="M48.2056 47.6025C48.9711 47.6025 49.5917 46.9819 49.5917 46.2164V41.781C49.5917 41.0155 48.9711 40.3949 48.2056 40.3949C47.4402 40.3949 46.8196 41.0155 46.8196 41.781V44.8303H43.7702C43.0047 44.8303 42.3841 45.4509 42.3841 46.2164C42.3841 46.9819 43.0047 47.6025 43.7702 47.6025H48.2056Z" fill="white"/>
<path d="M33.4209 68.4859H26.0285C25.263 68.4859 24.6424 69.1065 24.6424 69.872V78.7428C24.6424 79.5083 25.263 80.1289 26.0285 80.1289H33.4209C34.1864 80.1289 34.807 79.5083 34.807 78.7428V69.872C34.807 69.1065 34.1864 68.4859 33.4209 68.4859ZM32.0348 71.2581V72.9213H27.4146V71.2581H32.0348ZM27.4146 77.3568V75.6935H32.0348V77.3568H27.4146Z" fill="white"/>
<path d="M20.1146 68.4859H12.7222C11.9568 68.4859 11.3362 69.1065 11.3362 69.872V78.7428C11.3362 79.5083 11.9568 80.1289 12.7222 80.1289H20.1146C20.8801 80.1289 21.5007 79.5083 21.5007 78.7428V69.872C21.5007 69.1065 20.8801 68.4859 20.1146 68.4859ZM18.7285 71.2581V72.9213H14.1083V71.2581H18.7285ZM14.1083 77.3568V75.6935H18.7285V77.3568H14.1083Z" fill="white"/>
<path d="M32.9589 50.7442H26.4905C25.4715 50.7442 24.6424 51.5733 24.6424 52.5923V62.4796C24.6424 63.2451 25.263 63.8657 26.0285 63.8657H33.4209C34.1864 63.8657 34.807 63.2451 34.807 62.4796V52.5923C34.807 51.5733 33.9779 50.7442 32.9589 50.7442ZM32.0348 53.5164V56.6581H27.4146V53.5164H32.0348ZM27.4146 61.0935V59.4303H32.0348V61.0935H27.4146Z" fill="white"/>
<path d="M19.6526 50.7442H13.1843C12.1652 50.7442 11.3362 51.5733 11.3362 52.5923V62.4796C11.3362 63.2451 11.9568 63.8657 12.7222 63.8657H20.1146C20.8801 63.8657 21.5007 63.2451 21.5007 62.4796V52.5923C21.5007 51.5733 20.6716 50.7442 19.6526 50.7442ZM18.7285 53.5164V56.6581H14.1083V53.5164H18.7285ZM14.1083 61.0935V59.4303H18.7285V61.0935H14.1083Z" fill="white"/>
<path d="M76.2967 80.1289H83.689C84.4545 80.1289 85.0751 79.5083 85.0751 78.7428V69.872C85.0751 69.1065 84.4545 68.4859 83.689 68.4859H76.2967C75.5312 68.4859 74.9106 69.1065 74.9106 69.872V78.7428C74.9106 79.5083 75.5312 80.1289 76.2967 80.1289ZM77.6827 77.3568V75.6935H82.303V77.3568H77.6827ZM82.303 71.2581V72.9213H77.6827V71.2581H82.303Z" fill="white"/>
<path d="M62.9904 80.1289H70.3828C71.1482 80.1289 71.7688 79.5083 71.7688 78.7428V69.872C71.7688 69.1065 71.1482 68.4859 70.3828 68.4859H62.9904C62.2249 68.4859 61.6043 69.1065 61.6043 69.872V78.7428C61.6043 79.5083 62.2249 80.1289 62.9904 80.1289ZM64.3765 77.3568V75.6935H68.9967V77.3568H64.3765ZM68.9967 71.2581V72.9213H64.3765V71.2581H68.9967Z" fill="white"/>
<path d="M76.2967 63.8657H83.689C84.4545 63.8657 85.0751 63.2451 85.0751 62.4796V52.5923C85.0751 51.5733 84.246 50.7442 83.227 50.7442H76.7587C75.7396 50.7442 74.9106 51.5733 74.9106 52.5923V62.4796C74.9106 63.2451 75.5312 63.8657 76.2967 63.8657ZM77.6827 61.0935V59.4303H82.303V61.0935H77.6827ZM82.303 53.5164V56.6581H77.6827V53.5164H82.303Z" fill="white"/>
<path d="M62.9904 63.8657H70.3828C71.1482 63.8657 71.7688 63.2451 71.7688 62.4796V52.5923C71.7688 51.5733 70.9398 50.7442 69.9207 50.7442H63.4524C62.4334 50.7442 61.6043 51.5733 61.6043 52.5923V62.4796C61.6043 63.2451 62.2249 63.8657 62.9904 63.8657ZM64.3765 61.0935V59.4303H68.9967V61.0935H64.3765ZM68.9967 53.5164V56.6581H64.3765V53.5164H68.9967Z" fill="white"/>
</svg>
