<svg width="85" height="62" viewBox="0 0 85 62" fill="none" xmlns="http://www.w3.org/2000/svg">
<path d="M77.5994 58.7332H66.4466V47.4939C76.558 46.6212 84.5699 36.3773 84.5699 23.8806C84.5699 10.8123 75.8149 0.180908 65.0525 0.180908C58.8432 0.180908 53.0214 3.80697 49.3842 9.77929L43.9374 0.848683C43.4314 0.0177985 42.0638 0.0177985 41.5577 0.848683L36.1109 9.77929C32.4723 3.80697 26.6506 0.180908 20.4412 0.180908C9.67878 0.180908 0.923828 10.8123 0.923828 23.8806C0.923828 36.3773 8.93573 46.6212 19.0471 47.4939V58.7332H7.89433C7.1234 58.7332 6.50023 59.3563 6.50023 60.1273C6.50023 60.8982 7.1234 61.5214 7.89433 61.5214H77.5994C78.3703 61.5214 78.9935 60.8982 78.9935 60.1273C78.9935 59.3563 78.3703 58.7332 77.5994 58.7332ZM59.4761 50.3685C59.9905 50.3685 60.4631 50.0855 60.7057 49.6325C60.9483 49.1794 60.9204 48.6287 60.636 48.2021L59.5946 46.6407C60.9134 47.105 62.2726 47.4019 63.6584 47.5204V58.7332H44.141V50.3685H59.4761ZM65.0525 2.96911C74.2773 2.96911 81.7817 12.35 81.7817 23.8806C81.7817 34.8243 75.0203 43.8135 66.4466 44.7043V30.0342L70.2204 26.2604C70.7655 25.7153 70.7655 24.8342 70.2204 24.2891C69.6753 23.744 68.7943 23.744 68.2492 24.2891L66.4466 26.0917V15.516C66.4466 14.7451 65.8234 14.1219 65.0525 14.1219C64.2815 14.1219 63.6584 14.7451 63.6584 15.516V33.0622L59.7647 29.1685C59.2196 28.6234 58.3385 28.6234 57.7934 29.1685C57.2483 29.7135 57.2483 30.5946 57.7934 31.1397L63.6584 37.0047V44.7127C61.0417 44.4408 58.5211 43.4078 56.2878 41.6791L50.9275 33.6393H55.3635C55.8626 33.6393 56.324 33.3717 56.5736 32.9381C56.8217 32.5031 56.8189 31.9706 56.5652 31.5384L47.9706 16.9101H51.2509C51.7542 16.9101 52.2198 16.6383 52.4665 16.1977C52.7133 15.7572 52.7035 15.2205 52.4401 14.7897L51.0459 12.5048C54.106 6.60771 59.4106 2.96911 65.0525 2.96911ZM42.7469 4.25168L48.7666 14.1219H45.5351C45.036 14.1219 44.5745 14.3896 44.325 14.8232C44.0768 15.2581 44.0796 15.7907 44.3334 16.2228L52.928 30.8511H48.3233C47.8088 30.8511 47.3362 31.1341 47.0937 31.5872C46.8511 32.0403 46.879 32.591 47.1634 33.0176L56.8719 47.5803H28.6218L38.3304 33.019C38.6147 32.591 38.6426 32.0417 38.4001 31.5886C38.1575 31.1355 37.6849 30.8511 37.1705 30.8511H32.5657L41.1604 16.2228C41.4141 15.7907 41.4169 15.2581 41.1687 14.8232C40.9192 14.3896 40.4578 14.1219 39.9587 14.1219H36.7271L42.7469 4.25168ZM3.71203 23.8806C3.71203 12.35 11.2165 2.96911 20.4412 2.96911C26.0832 2.96911 31.3877 6.60771 34.4478 12.5048L33.0537 14.7897C32.7916 15.2205 32.7818 15.7572 33.0272 16.1977C33.2726 16.6383 33.7396 16.9101 34.2428 16.9101H37.5232L28.9285 31.5384C28.6748 31.9706 28.672 32.5031 28.9202 32.9381C29.1697 33.3717 29.6312 33.6393 30.1303 33.6393H34.5663L29.206 41.6791C26.9726 43.4078 24.4521 44.4408 21.8353 44.7127V30.0342L25.6092 26.2604C26.1543 25.7153 26.1543 24.8342 25.6092 24.2891C25.0641 23.744 24.183 23.744 23.6379 24.2891L21.8353 26.0917V15.516C21.8353 14.7451 21.2122 14.1219 20.4412 14.1219C19.6703 14.1219 19.0471 14.7451 19.0471 15.516V33.0622L15.1534 29.1685C14.6083 28.6234 13.7273 28.6234 13.1822 29.1685C12.6371 29.7135 12.6371 30.5946 13.1822 31.1397L19.0471 37.0047V44.7043C10.4734 43.8135 3.71203 34.8243 3.71203 23.8806ZM21.8353 47.5204C23.2197 47.4019 24.5803 47.1036 25.8992 46.6407L24.8578 48.2021C24.5734 48.6301 24.5455 49.1794 24.7881 49.6325C25.0306 50.0855 25.5032 50.3685 26.0177 50.3685H41.3528V58.7332H21.8353V47.5204Z" fill="white"/>
</svg>
