<svg width="70" height="70" viewBox="0 0 70 70" fill="none" xmlns="http://www.w3.org/2000/svg">
<path d="M35.0001 0.140625C15.8881 0.140625 0.394531 15.6401 0.394531 34.7595C0.394531 53.8789 15.8881 69.3784 35.0001 69.3784C54.1122 69.3784 69.6058 53.8789 69.6058 34.7595C69.6058 15.6401 54.1153 0.140625 35.0001 0.140625ZM18.1823 35.935C17.5637 35.5774 17.0632 35.1856 16.6684 34.8248C17.0601 34.3988 17.8341 33.6711 19.0341 33.1797C20.2464 32.6821 21.322 32.6604 21.9003 32.6915C21.3873 32.0042 20.7127 30.9095 20.3832 29.4541C19.9729 27.6286 20.5138 27.044 20.0786 24.9355C19.9231 24.1798 19.603 22.7244 18.5087 21.2721C17.7906 20.3205 16.9948 19.7078 16.4352 19.3471C16.7243 19.232 19.3729 18.2369 21.8505 19.7949C23.725 20.9735 24.2815 22.8426 24.4027 23.3028C26.2306 22.5969 28.301 23.2562 29.3486 24.8515C30.3341 26.3536 30.2097 28.3688 29.0222 29.7744C29.6408 28.2568 28.8357 26.5215 27.3342 26.0084C25.87 25.5108 24.2193 26.3349 23.7344 27.8556C23.6877 28.0049 23.209 29.6096 24.2815 31.0215C25.3633 32.4458 27.0606 32.4022 27.213 32.396H40.6175C44.4007 32.2156 47.3291 28.9223 47.0835 25.1874C46.841 21.5146 43.608 19.571 39.8901 19.7949H25.6493C24.4431 19.7171 22.1116 19.3968 19.7118 17.8761C18.1108 16.8623 17.0538 15.6774 16.4166 14.8285H40.9532C48.8679 15.5717 53.9754 21.7106 52.8283 27.8961C51.9424 32.6635 47.3882 36.6503 41.6434 37.2194H27.1414C26.9176 37.2412 25.3384 37.4246 24.3499 38.8583C23.2929 40.3914 23.8059 42.0583 23.868 42.248C25.0587 43.9056 27.2285 43.9709 28.1704 42.9944C28.9414 42.1921 28.9973 40.5843 28.0212 39.3497C29.9113 40.6278 30.4087 43.1499 29.2771 44.9007C28.2823 46.437 26.2182 47.0994 24.3748 46.3748C24.2224 46.9128 23.6722 48.5735 22.0184 49.721C19.5346 51.4408 16.7212 50.5047 16.4135 50.3958C18.1357 49.1737 18.9004 47.9111 19.2828 47.0248C20.2962 44.6737 19.4786 42.9446 20.5262 39.8223C20.949 38.566 21.493 37.6175 21.8567 37.0515C20.9894 36.983 19.6154 36.7529 18.1854 35.9319L18.1823 35.935ZM52.6014 48.4615C49.5362 54.4791 42.8402 54.9549 42.5635 54.9704H16.4197C17.1191 54.0313 18.2414 52.7687 19.9169 51.6802C22.8639 49.7614 25.8016 49.4971 27.1912 49.466H39.9398C40.2507 49.4784 43.751 49.5655 45.84 46.7635C47.5467 44.4716 47.5933 41.2124 45.9147 38.6562C48.5052 38.35 50.0801 36.8362 51.344 35.4862C54.3992 39.3496 54.5847 44.568 52.6045 48.4615H52.6014Z" fill="#1C8035"/>
</svg>
