<svg width="274" height="154" viewBox="0 0 274 154" fill="none" xmlns="http://www.w3.org/2000/svg">
<path d="M137.867 0.0761719C109.526 0.0761719 86.5502 23.0605 86.5502 51.4129C86.5502 79.7652 109.526 102.75 137.867 102.75C166.209 102.75 189.184 79.7652 189.184 51.4129C189.184 23.0605 166.213 0.0761719 137.867 0.0761719ZM112.928 53.1561C112.011 52.6257 111.268 52.0447 110.683 51.5097C111.264 50.8779 112.412 49.7988 114.191 49.0702C115.989 48.3323 117.584 48.3 118.441 48.3461C117.681 47.327 116.68 45.7037 116.192 43.5454C115.583 40.8384 116.385 39.9714 115.74 36.8447C115.509 35.7241 115.035 33.5658 113.412 31.4122C112.347 30.0011 111.167 29.0926 110.337 28.5576C110.766 28.387 114.693 26.9113 118.368 29.2217C121.147 30.9695 121.972 33.7411 122.152 34.4236C124.863 33.3768 127.933 34.3544 129.487 36.7202C130.948 38.9476 130.763 41.936 129.003 44.0204C129.92 41.7699 128.726 39.1967 126.499 38.4357C124.328 37.6979 121.88 38.92 121.161 41.175C121.092 41.3964 120.382 43.776 121.972 45.8697C123.577 47.9818 126.094 47.9173 126.32 47.908H146.197C151.808 47.6406 156.15 42.7568 155.786 37.2183C155.426 31.7719 150.632 28.8897 145.119 29.2217H124.001C122.212 29.1064 118.755 28.6314 115.196 26.3763C112.822 24.8729 111.255 23.1159 110.309 21.8569H146.695C158.432 22.9591 166.006 32.0625 164.305 41.235C162.991 48.3046 156.238 54.2167 147.719 55.0607H126.214C125.882 55.093 123.54 55.365 122.074 57.491C120.507 59.7645 121.267 62.2364 121.359 62.5177C123.125 64.9757 126.343 65.0725 127.739 63.6245C128.883 62.4347 128.966 60.0505 127.518 58.2196C130.321 60.115 131.058 63.855 129.38 66.4514C127.905 68.7295 124.844 69.7118 122.111 68.6373C121.885 69.4351 121.069 71.8977 118.616 73.5994C114.933 76.1497 110.761 74.7616 110.305 74.6002C112.859 72.7878 113.993 70.9155 114.56 69.6011C116.063 66.1147 114.85 63.5507 116.404 58.9206C117.031 57.0575 117.837 55.651 118.377 54.8116C117.091 54.7102 115.053 54.3689 112.933 53.1515L112.928 53.1561ZM163.968 71.7317C159.423 80.6552 149.493 81.3608 149.083 81.3839H110.314C111.351 79.9912 113.015 78.1188 115.5 76.5048C119.87 73.6594 124.227 73.2674 126.287 73.2213H145.192C145.653 73.2397 150.844 73.3688 153.942 69.2138C156.473 65.815 156.542 60.982 154.053 57.1912C157.894 56.7373 160.229 54.4924 162.104 52.4905C166.634 58.2196 166.909 65.958 163.973 71.7317H163.968Z" fill="#1C8035"/>
<path d="M20.5784 138.693V141.644H0.742188V139.338L15.6643 120.85H0.981901V117.899H20.1405V120.205L5.28752 138.693H20.5784Z" fill="#1D1D1B"/>
<path d="M45.5363 117.899V141.644H42.1434V131.06H28.512V141.644H25.1192V117.899H28.512V128.109H42.1434V117.899H45.5363Z" fill="#1D1D1B"/>
<path d="M55.1663 135.709L52.5571 141.644H49.0628L59.813 117.899H63.169L73.9515 141.644H70.3927L67.7835 135.709H55.1663ZM66.5941 132.997L61.4726 121.362L56.351 132.997H66.5941Z" fill="#1D1D1B"/>
<path d="M97.8905 117.899V141.644H95.1108L80.8709 123.935V141.644H77.478V117.899H80.2578L94.4977 135.607V117.899H97.8905Z" fill="#1D1D1B"/>
<path d="M107.525 135.709L104.916 141.644H101.422L112.172 117.899H115.528L126.31 141.644H122.752L120.142 135.709H107.525ZM118.953 132.997L113.831 121.362L108.71 132.997H118.953Z" fill="#1D1D1B"/>
<path d="M158.183 131.415C158.976 132.421 159.368 133.694 159.368 135.234C159.368 137.291 158.593 138.877 157.044 139.984C155.495 141.091 153.241 141.644 150.282 141.644H138.955V117.899H149.604C152.315 117.899 154.412 118.443 155.896 119.527C157.376 120.61 158.118 122.118 158.118 124.037C158.118 125.282 157.833 126.357 157.252 127.26C156.676 128.164 155.901 128.856 154.928 129.331C156.307 129.714 157.39 130.41 158.183 131.415ZM142.348 120.647V128.247H149.3C151.042 128.247 152.379 127.924 153.32 127.279C154.255 126.633 154.726 125.692 154.726 124.447C154.726 123.202 154.255 122.261 153.32 121.616C152.379 120.97 151.042 120.647 149.3 120.647H142.348ZM154.486 137.946C155.459 137.314 155.943 136.318 155.943 134.962C155.943 132.315 154.011 130.991 150.143 130.991H142.343V138.896H150.143C152.066 138.896 153.513 138.577 154.486 137.946Z" fill="#1D1D1B"/>
<path d="M167.135 135.709L164.526 141.644H161.032L171.782 117.899H175.138L185.921 141.644H182.362L179.753 135.709H167.135ZM178.563 132.997L173.442 121.362L168.32 132.997H178.563Z" fill="#1D1D1B"/>
<path d="M191.19 141.086C189.53 140.533 188.221 139.813 187.271 138.932L188.525 136.285C189.429 137.102 190.586 137.761 192.001 138.268C193.412 138.776 194.868 139.034 196.357 139.034C198.326 139.034 199.792 138.702 200.764 138.033C201.737 137.364 202.221 136.479 202.221 135.372C202.221 134.561 201.954 133.897 201.424 133.389C200.893 132.882 200.239 132.49 199.455 132.218C198.676 131.946 197.574 131.641 196.15 131.3C194.361 130.871 192.923 130.442 191.826 130.009C190.729 129.58 189.793 128.916 189.009 128.026C188.23 127.131 187.838 125.928 187.838 124.415C187.838 123.147 188.17 122.008 188.839 120.989C189.507 119.969 190.517 119.158 191.872 118.544C193.227 117.931 194.91 117.627 196.924 117.627C198.326 117.627 199.704 117.807 201.059 118.171C202.415 118.535 203.581 119.052 204.554 119.73L203.433 122.441C202.438 121.809 201.377 121.33 200.248 120.998C199.119 120.67 198.012 120.504 196.924 120.504C195.002 120.504 193.564 120.855 192.6 121.556C191.641 122.257 191.157 123.161 191.157 124.267C191.157 125.079 191.429 125.743 191.973 126.25C192.517 126.758 193.19 127.154 193.992 127.436C194.795 127.717 195.887 128.017 197.265 128.335C199.049 128.764 200.488 129.193 201.571 129.626C202.654 130.055 203.59 130.71 204.369 131.595C205.148 132.476 205.54 133.666 205.54 135.156C205.54 136.401 205.199 137.535 204.521 138.563C203.844 139.592 202.816 140.408 201.437 141.008C200.059 141.607 198.363 141.907 196.353 141.907C194.564 141.907 192.845 141.63 191.18 141.077L191.19 141.086Z" fill="#1D1D1B"/>
<path d="M206.739 120.85V117.899H226.372V120.85H218.236V141.644H214.88V120.85H206.739Z" fill="#1D1D1B"/>
<path d="M231.392 135.709L228.783 141.644H225.289L236.039 117.899H239.395L250.177 141.644H246.619L244.009 135.709H231.392ZM242.82 132.997L237.699 121.362L232.577 132.997H242.82Z" fill="#1D1D1B"/>
<path d="M255.636 139.2C253.87 137.392 252.989 134.791 252.989 131.397V117.894H256.382V131.259C256.382 136.345 258.609 138.891 263.062 138.891C265.233 138.891 266.893 138.264 268.045 137.009C269.198 135.755 269.774 133.837 269.774 131.259V117.894H273.061V131.397C273.061 134.81 272.18 137.42 270.415 139.214C268.649 141.012 266.188 141.912 263.021 141.912C259.854 141.912 257.392 141.008 255.626 139.2H255.636Z" fill="#1D1D1B"/>
<path d="M57.7524 150.106H0.742188V150.687H57.7524V150.106Z" fill="#CA9932"/>
<path d="M273.065 150.106H217.987V150.687H273.065V150.106Z" fill="#CA9932"/>
<path d="M144.261 150.249H143.325V152.315H142.86V150.249H141.924L140.546 152.315H139.992L141.532 149.996L140.112 147.81H140.624L141.915 149.83H142.86V147.81H143.325V149.83H144.261L145.557 147.81H146.073L144.644 149.996L146.188 152.315H145.635L144.261 150.249Z" fill="#AFAFAF"/>
<path d="M147.271 147.81H147.742V151.545L150.623 147.81H151.051V152.315H150.586V148.589L147.7 152.315H147.271V147.81Z" fill="#AFAFAF"/>
<path d="M156.353 147.81V152.315H155.883V148.22H153.711L153.661 149.728C153.638 150.351 153.592 150.849 153.509 151.232C153.43 151.614 153.306 151.896 153.144 152.08C152.983 152.269 152.762 152.362 152.494 152.362C152.379 152.362 152.259 152.348 152.135 152.315L152.176 151.891C152.25 151.91 152.319 151.919 152.388 151.919C152.577 151.919 152.729 151.845 152.849 151.697C152.969 151.55 153.057 151.315 153.117 151.001C153.177 150.687 153.218 150.268 153.241 149.747L153.306 147.814H156.362L156.353 147.81Z" fill="#AFAFAF"/>
<path d="M158.957 152.053C158.593 151.85 158.312 151.578 158.109 151.232C157.902 150.886 157.8 150.494 157.8 150.06C157.8 149.627 157.902 149.235 158.109 148.889C158.317 148.543 158.598 148.266 158.957 148.068C159.322 147.87 159.723 147.768 160.17 147.768C160.617 147.768 161.013 147.87 161.373 148.068C161.733 148.266 162.014 148.538 162.217 148.889C162.424 149.239 162.525 149.631 162.525 150.065C162.525 150.498 162.419 150.89 162.217 151.241C162.009 151.591 161.728 151.863 161.373 152.062C161.013 152.26 160.612 152.362 160.17 152.362C159.727 152.362 159.322 152.26 158.957 152.062M161.133 151.693C161.424 151.531 161.645 151.305 161.806 151.024C161.968 150.738 162.051 150.42 162.051 150.07C162.051 149.719 161.968 149.401 161.806 149.115C161.645 148.829 161.414 148.608 161.133 148.446C160.843 148.285 160.525 148.206 160.17 148.206C159.815 148.206 159.492 148.285 159.202 148.446C158.911 148.608 158.685 148.834 158.519 149.115C158.354 149.401 158.275 149.719 158.275 150.07C158.275 150.42 158.358 150.738 158.519 151.024C158.685 151.31 158.916 151.531 159.202 151.693C159.492 151.854 159.815 151.933 160.17 151.933C160.525 151.933 160.847 151.854 161.133 151.693Z" fill="#AFAFAF"/>
<path d="M163.991 147.81H164.462V151.545L167.343 147.81H167.771V152.315H167.301V148.589L164.42 152.315H163.991V147.81ZM165.107 147.261C164.918 147.118 164.826 146.911 164.821 146.652H165.176C165.176 146.823 165.245 146.961 165.37 147.058C165.494 147.16 165.665 147.206 165.868 147.206C166.07 147.206 166.241 147.16 166.365 147.058C166.495 146.961 166.559 146.828 166.564 146.652H166.919C166.919 146.915 166.817 147.118 166.628 147.261C166.439 147.404 166.186 147.482 165.872 147.482C165.559 147.482 165.296 147.409 165.112 147.261" fill="#AFAFAF"/>
<path d="M173.119 150.249H172.086V152.315H171.621V147.81H172.086V149.83H173.119L174.64 147.81H175.156L173.478 150L175.249 152.315H174.705L173.119 150.249Z" fill="#AFAFAF"/>
<path d="M177.065 152.053C176.701 151.85 176.42 151.578 176.217 151.232C176.009 150.886 175.908 150.494 175.908 150.06C175.908 149.627 176.009 149.235 176.217 148.889C176.424 148.543 176.705 148.266 177.065 148.068C177.429 147.87 177.83 147.768 178.277 147.768C178.725 147.768 179.121 147.87 179.481 148.068C179.84 148.266 180.121 148.538 180.324 148.889C180.532 149.239 180.633 149.631 180.633 150.065C180.633 150.498 180.527 150.89 180.324 151.241C180.117 151.591 179.835 151.863 179.481 152.062C179.121 152.26 178.72 152.362 178.277 152.362C177.835 152.362 177.429 152.26 177.065 152.062M179.241 151.693C179.531 151.531 179.753 151.305 179.914 151.024C180.075 150.738 180.158 150.42 180.158 150.07C180.158 149.719 180.075 149.401 179.914 149.115C179.753 148.829 179.522 148.608 179.241 148.446C178.95 148.285 178.632 148.206 178.277 148.206C177.922 148.206 177.6 148.285 177.309 148.446C177.019 148.608 176.793 148.834 176.627 149.115C176.461 149.401 176.383 149.719 176.383 150.07C176.383 150.42 176.466 150.738 176.627 151.024C176.793 151.31 177.023 151.531 177.309 151.693C177.6 151.854 177.922 151.933 178.277 151.933C178.632 151.933 178.955 151.854 179.241 151.693Z" fill="#AFAFAF"/>
<path d="M186.773 147.81V152.315H186.317V148.714L184.547 151.744H184.321L182.555 148.732V152.315H182.094V147.81H182.491L184.445 151.153L186.382 147.81H186.773Z" fill="#AFAFAF"/>
<path d="M192.407 147.81V152.315H191.936V148.225H189.083V152.315H188.617V147.81H192.407Z" fill="#AFAFAF"/>
<path d="M197.703 147.81V152.315H197.233V148.22H195.062L195.011 149.728C194.988 150.351 194.942 150.849 194.859 151.232C194.781 151.614 194.656 151.896 194.495 152.08C194.334 152.269 194.112 152.362 193.845 152.362C193.73 152.362 193.61 152.348 193.485 152.315L193.527 151.891C193.601 151.91 193.67 151.919 193.739 151.919C193.928 151.919 194.08 151.845 194.2 151.697C194.32 151.55 194.407 151.315 194.467 151.001C194.527 150.687 194.569 150.268 194.592 149.747L194.656 147.814H197.713L197.703 147.81Z" fill="#AFAFAF"/>
<path d="M202.733 151.905V152.315H199.543V147.81H202.636V148.225H200.022V149.83H202.355V150.231H200.022V151.905H202.733Z" fill="#AFAFAF"/>
<path d="M205.6 150.249H204.572V152.315H204.106V147.81H204.572V149.83H205.6L207.126 147.81H207.638L205.969 150L207.739 152.315H207.19L205.6 150.249Z" fill="#AFAFAF"/>
<path d="M209.551 152.057C209.191 151.859 208.91 151.587 208.707 151.236C208.5 150.886 208.398 150.494 208.398 150.06C208.398 149.627 208.5 149.235 208.707 148.884C208.91 148.534 209.196 148.262 209.551 148.063C209.91 147.865 210.311 147.764 210.758 147.764C211.09 147.764 211.404 147.819 211.685 147.93C211.971 148.04 212.206 148.206 212.404 148.419L212.1 148.723C211.75 148.368 211.302 148.188 210.768 148.188C210.413 148.188 210.09 148.271 209.795 148.432C209.5 148.594 209.274 148.82 209.113 149.101C208.947 149.387 208.864 149.701 208.864 150.051C208.864 150.402 208.947 150.72 209.113 151.001C209.279 151.287 209.509 151.504 209.795 151.67C210.09 151.831 210.408 151.914 210.768 151.914C211.307 151.914 211.754 151.734 212.1 151.375L212.404 151.679C212.206 151.896 211.966 152.057 211.68 152.168C211.395 152.283 211.086 152.338 210.749 152.338C210.302 152.338 209.901 152.242 209.546 152.039L209.551 152.057Z" fill="#AFAFAF"/>
<path d="M137.452 147.538H137.028V153.561H137.452V147.538Z" fill="#AFAFAF"/>
<path d="M65.036 148.22H63.4548V152.311H62.98V148.22H61.3988V147.805H65.036V148.22Z" fill="#AFAFAF"/>
<path d="M67.6774 150.752V152.306H67.2072V150.752L65.4048 147.805H65.9119L67.4562 150.332L69.0005 147.805H69.4799L67.6774 150.752ZM65.9856 150.54H68.876V150.9H65.9856V150.54Z" fill="#AFAFAF"/>
<path d="M73.5135 148.22C73.8362 148.497 74.0022 148.875 74.0022 149.35C74.0022 149.825 73.8408 150.208 73.5135 150.48C73.1909 150.752 72.7391 150.886 72.1628 150.886H70.9551V152.306H70.4756V147.801H72.1628C72.7391 147.801 73.1862 147.934 73.5135 148.211M73.1724 150.171C73.4075 149.977 73.5274 149.701 73.5274 149.341C73.5274 148.981 73.4075 148.695 73.1724 148.497C72.9373 148.303 72.5962 148.202 72.149 148.202H70.9505V150.457H72.149C72.5962 150.457 72.9373 150.36 73.1724 150.162" fill="#AFAFAF"/>
<path d="M75.9798 148.22V150.037H77.9252V150.402H75.989V152.311H75.5188V150.402H74.8274V150.037H75.5188V147.805H78.3816V148.22H75.9798Z" fill="#AFAFAF"/>
<path d="M82.701 149.774C82.9822 150.014 83.1205 150.365 83.1205 150.83C83.1205 151.296 82.973 151.684 82.6733 151.937C82.3737 152.186 81.945 152.315 81.3826 152.315H79.594V147.81H80.0642V149.419H81.4794C82.0095 149.419 82.4152 149.544 82.6964 149.779M82.3138 151.661C82.5304 151.476 82.6365 151.204 82.6365 150.844C82.6365 150.153 82.2124 149.811 81.3595 149.811H80.0549V151.942H81.3595C81.7744 151.942 82.0925 151.85 82.3092 151.665M83.8903 147.814H84.3605V152.32H83.8903V147.814Z" fill="#AFAFAF"/>
<path d="M89.9754 147.805V152.311H89.5052V150.236H86.6885V152.311H86.2137V147.805H86.6885V149.816H89.5052V147.805H89.9754Z" fill="#AFAFAF"/>
<path d="M95.392 150.752V152.311H94.9218V150.752L93.1239 147.805H93.631L95.1707 150.337L96.7196 147.805H97.1944L95.392 150.752Z" fill="#AFAFAF"/>
<path d="M98.2455 147.805H98.7157V151.541L101.597 147.805H102.026V152.311H101.555V148.585L98.6742 152.311H98.2455V147.805ZM99.3611 147.256C99.172 147.113 99.0799 146.906 99.0752 146.648H99.4302C99.4302 146.818 99.4994 146.957 99.6238 147.054C99.7483 147.155 99.9142 147.201 100.122 147.201C100.329 147.201 100.495 147.155 100.62 147.054C100.749 146.957 100.813 146.823 100.818 146.648H101.173C101.173 146.911 101.071 147.113 100.882 147.256C100.693 147.399 100.44 147.478 100.126 147.478C99.8128 147.478 99.5501 147.404 99.3657 147.256" fill="#AFAFAF"/>
<path d="M107.368 150.245H106.336V152.311H105.875V147.805H106.336V149.83H107.368L108.894 147.805H109.406L107.733 149.996L109.503 152.311H108.954L107.368 150.245Z" fill="#AFAFAF"/>
<path d="M113.744 151.9V152.311H110.558V147.805H113.647V148.22H111.029V149.825H113.361V150.226H111.029V151.9H113.744Z" fill="#AFAFAF"/>
<path d="M120.64 147.805V152.311H115.118V147.805H115.588V151.9H117.648V147.805H118.119V151.9H120.175V147.805H120.64Z" fill="#AFAFAF"/>
<path d="M125.665 151.9V152.311H122.48V147.805H125.568V148.22H122.954V149.825H125.287V150.226H122.954V151.9H125.665Z" fill="#AFAFAF"/>
<path d="M130.81 147.805V152.311H130.335V150.236H127.518V152.311H127.043V147.805H127.518V149.816H130.335V147.805H130.81Z" fill="#AFAFAF"/>
<path d="M133.115 147.805H132.644V152.311H133.115V147.805Z" fill="#AFAFAF"/>
</svg>
