<svg width="188" height="106" viewBox="0 0 188 106" fill="none" xmlns="http://www.w3.org/2000/svg">
<path d="M94.2491 0.253281C74.7694 0.253281 58.9778 16.051 58.9778 35.5381C58.9778 55.0253 74.7694 70.823 94.2491 70.823C113.729 70.823 129.52 55.0253 129.52 35.5381C129.52 16.051 113.732 0.253281 94.2491 0.253281ZM77.1077 36.7363C76.4772 36.3718 75.9671 35.9724 75.5647 35.6047C75.9639 35.1705 76.7529 34.4287 77.9759 33.9279C79.2116 33.4208 80.3079 33.3986 80.8972 33.4303C80.3744 32.7298 79.6869 31.6141 79.351 30.1307C78.9328 28.2701 79.4841 27.6742 79.0405 25.5251C78.8821 24.7549 78.5557 23.2715 77.4404 21.7912C76.7085 20.8213 75.8974 20.1969 75.3271 19.8292C75.6217 19.7119 78.3213 18.6976 80.8465 20.2856C82.7571 21.487 83.3243 23.3919 83.4478 23.861C85.3109 23.1415 87.4211 23.8135 88.4889 25.4395C89.4933 26.9705 89.3665 29.0245 88.1562 30.4571C88.7867 28.9103 87.966 27.1417 86.4357 26.6187C84.9433 26.1115 83.2609 26.9515 82.7666 28.5015C82.7191 28.6536 82.2311 30.2892 83.3243 31.7282C84.4269 33.1799 86.1569 33.1355 86.3121 33.1292H99.9745C103.831 32.9453 106.815 29.5886 106.565 25.7819C106.318 22.0385 103.023 20.0574 99.2331 20.2856H84.7184C83.489 20.2064 81.1127 19.8799 78.6666 18.33C77.0349 17.2966 75.9576 16.089 75.308 15.2237H100.317C108.384 15.9812 113.589 22.2382 112.42 28.5427C111.517 33.4018 106.875 37.4653 101.02 38.0454H86.2392C86.0111 38.0675 84.4015 38.2545 83.394 39.7158C82.3167 41.2784 82.8395 42.9774 82.9029 43.1707C84.1164 44.8602 86.3279 44.9267 87.288 43.9314C88.0738 43.1137 88.1308 41.4749 87.1359 40.2166C89.0623 41.5193 89.5693 44.0899 88.416 45.8745C87.4021 47.4403 85.2982 48.1154 83.4193 47.3769C83.2641 47.9252 82.7032 49.6178 81.0176 50.7875C78.486 52.5403 75.6186 51.5862 75.3049 51.4753C77.0602 50.2296 77.8397 48.9427 78.2294 48.0393C79.2623 45.6431 78.429 43.8807 79.4967 40.6984C79.9277 39.4178 80.4821 38.4511 80.8529 37.8742C79.9689 37.8045 78.5684 37.5699 77.1109 36.7331L77.1077 36.7363ZM112.189 49.5037C109.065 55.6371 102.24 56.122 101.958 56.1379H75.3112C76.0241 55.1806 77.1679 53.8937 78.8757 52.7844C81.8794 50.8287 84.8736 50.5592 86.2899 50.5275H99.2838C99.6006 50.5402 103.168 50.629 105.298 47.7731C107.037 45.437 107.085 42.1152 105.374 39.5097C108.014 39.1977 109.619 37.6548 110.907 36.2788C114.021 40.2166 114.21 45.5353 112.192 49.5037H112.189Z" fill="white"/>
<path d="M13.6339 95.5275V97.5561H0V95.9712L10.2563 83.264H0.16476V81.2354H13.3329V82.8202L3.1241 95.5275H13.6339Z" fill="white"/>
<path d="M30.788 81.2354V97.5561H28.456V90.2816H19.0868V97.5561H16.7548V81.2354H19.0868V88.2531H28.456V81.2354H30.788Z" fill="white"/>
<path d="M37.4069 93.4767L35.6135 97.5561H33.2118L40.6007 81.2354H42.9073L50.3184 97.5561H47.8723L46.079 93.4767H37.4069ZM45.2615 91.6129L41.7413 83.6158L38.2212 91.6129H45.2615Z" fill="white"/>
<path d="M66.7722 81.2354V97.5561H64.8616L55.0742 85.3845V97.5561H52.7422V81.2354H54.6528L64.4402 93.407V81.2354H66.7722Z" fill="white"/>
<path d="M73.3943 93.4767L71.6009 97.5561H69.1992L76.5881 81.2354H78.8948L86.3058 97.5561H83.8597L82.0664 93.4767H73.3943ZM81.2489 91.6129L77.7288 83.6158L74.2086 91.6129H81.2489Z" fill="white"/>
<path d="M108.213 90.5257C108.758 91.2167 109.027 92.0915 109.027 93.1502C109.027 94.5639 108.495 95.6543 107.43 96.415C106.365 97.1757 104.816 97.5561 102.782 97.5561H94.9969V81.2354H102.316C104.179 81.2354 105.621 81.6094 106.641 82.3543C107.658 83.0992 108.168 84.1356 108.168 85.4542C108.168 86.31 107.972 87.0486 107.573 87.6698C107.176 88.2911 106.644 88.7665 105.976 89.093C106.923 89.3561 107.668 89.8347 108.213 90.5257ZM97.3289 83.1245V88.3481H102.107C103.305 88.3481 104.223 88.1263 104.87 87.6825C105.513 87.2388 105.836 86.5921 105.836 85.7363C105.836 84.8805 105.513 84.2339 104.87 83.7901C104.223 83.3464 103.305 83.1245 102.107 83.1245H97.3289ZM105.671 95.014C106.34 94.5797 106.673 93.8951 106.673 92.9632C106.673 91.1438 105.345 90.2341 102.687 90.2341H97.3257V95.6669H102.687C104.008 95.6669 105.003 95.4482 105.671 95.014Z" fill="white"/>
<path d="M114.366 93.4767L112.572 97.5561H110.171L117.56 81.2354H119.866L127.277 97.5561H124.831L123.038 93.4767H114.366ZM122.22 91.6129L118.7 83.6158L115.18 91.6129H122.22Z" fill="white"/>
<path d="M130.899 97.1725C129.758 96.7922 128.858 96.2977 128.206 95.6923L129.067 93.8729C129.688 94.4339 130.484 94.8872 131.456 95.2359C132.426 95.5845 133.427 95.762 134.451 95.762C135.804 95.762 136.811 95.5338 137.48 95.0742C138.148 94.6146 138.481 94.006 138.481 93.2453C138.481 92.6874 138.297 92.231 137.933 91.8823C137.568 91.5337 137.118 91.2643 136.58 91.0772C136.044 90.8902 135.287 90.681 134.308 90.4465C133.079 90.1517 132.09 89.8569 131.336 89.559C130.582 89.2642 129.939 88.8077 129.4 88.196C128.865 87.5811 128.595 86.7538 128.595 85.7141C128.595 84.8425 128.823 84.0596 129.283 83.3591C129.742 82.6586 130.436 82.1007 131.368 81.6791C132.299 81.2576 133.456 81.0484 134.84 81.0484C135.804 81.0484 136.751 81.172 137.682 81.4224C138.614 81.6728 139.416 82.0278 140.084 82.4938L139.314 84.3575C138.63 83.9233 137.901 83.5936 137.125 83.3654C136.348 83.1404 135.588 83.0263 134.84 83.0263C133.519 83.0263 132.531 83.2672 131.868 83.7489C131.209 84.2307 130.877 84.852 130.877 85.6127C130.877 86.1706 131.064 86.627 131.437 86.9757C131.811 87.3243 132.274 87.5969 132.825 87.7903C133.376 87.9836 134.127 88.1897 135.075 88.4084C136.301 88.7031 137.29 88.9979 138.034 89.2959C138.779 89.5907 139.422 90.0407 139.957 90.6493C140.493 91.2547 140.762 92.0725 140.762 93.0963C140.762 93.9521 140.528 94.7319 140.062 95.4387C139.596 96.1455 138.89 96.7066 137.942 97.1186C136.995 97.5307 135.829 97.7367 134.447 97.7367C133.218 97.7367 132.036 97.5465 130.892 97.1662L130.899 97.1725Z" fill="white"/>
<path d="M141.586 83.264V81.2354H155.08V83.264H149.488V97.5561H147.181V83.264H141.586Z" fill="white"/>
<path d="M158.531 93.4767L156.738 97.5561H154.336L161.725 81.2354H164.031L171.442 97.5561H168.996L167.203 93.4767H158.531ZM166.386 91.6129L162.865 83.6158L159.345 91.6129H166.386Z" fill="white"/>
<path d="M175.194 95.8761C173.98 94.6336 173.375 92.8459 173.375 90.513V81.2322H175.707V90.4179C175.707 93.9141 177.237 95.6638 180.298 95.6638C181.791 95.6638 182.931 95.2327 183.723 94.3705C184.515 93.5084 184.912 92.1898 184.912 90.4179V81.2322H187.171V90.513C187.171 92.8586 186.565 94.6526 185.352 95.8856C184.138 97.1218 182.446 97.7399 180.27 97.7399C178.093 97.7399 176.401 97.1186 175.188 95.8761H175.194Z" fill="white"/>
<path d="M39.1844 103.372H0V103.772H39.1844V103.372Z" fill="white"/>
<path d="M187.174 103.372H149.317V103.772H187.174V103.372Z" fill="white"/>
<path d="M98.6438 103.471H98.0006V104.891H97.6806V103.471H97.0374L96.09 104.891H95.7098L96.7681 103.296L95.7922 101.794H96.1439L97.031 103.182H97.6806V101.794H98.0006V103.182H98.6438L99.5341 101.794H99.889L98.9068 103.296L99.9682 104.891H99.588L98.6438 103.471Z" fill="white"/>
<path d="M100.713 101.794H101.036V104.361L103.016 101.794H103.311V104.891H102.991V102.33L101.007 104.891H100.713V101.794Z" fill="white"/>
<path d="M106.955 101.794V104.891H106.631V102.076H105.139L105.104 103.112C105.088 103.54 105.057 103.883 105 104.146C104.946 104.409 104.86 104.602 104.749 104.729C104.639 104.859 104.486 104.922 104.303 104.922C104.223 104.922 104.141 104.913 104.056 104.891L104.084 104.599C104.135 104.612 104.182 104.618 104.23 104.618C104.36 104.618 104.464 104.567 104.547 104.466C104.629 104.365 104.689 104.203 104.73 103.987C104.772 103.772 104.8 103.483 104.816 103.125L104.86 101.797H106.961L106.955 101.794Z" fill="white"/>
<path d="M108.745 104.71C108.495 104.571 108.301 104.384 108.162 104.146C108.019 103.908 107.95 103.639 107.95 103.341C107.95 103.043 108.019 102.773 108.162 102.536C108.304 102.298 108.498 102.108 108.745 101.971C108.995 101.835 109.271 101.765 109.578 101.765C109.885 101.765 110.158 101.835 110.405 101.971C110.652 102.108 110.846 102.295 110.985 102.536C111.128 102.777 111.197 103.046 111.197 103.344C111.197 103.642 111.124 103.911 110.985 104.152C110.842 104.393 110.649 104.58 110.405 104.716C110.158 104.853 109.882 104.922 109.578 104.922C109.274 104.922 108.995 104.853 108.745 104.716M110.24 104.463C110.44 104.352 110.592 104.197 110.703 104.003C110.814 103.807 110.871 103.588 110.871 103.347C110.871 103.106 110.814 102.887 110.703 102.691C110.592 102.494 110.434 102.342 110.24 102.231C110.041 102.12 109.822 102.066 109.578 102.066C109.334 102.066 109.112 102.12 108.913 102.231C108.713 102.342 108.558 102.498 108.444 102.691C108.33 102.887 108.276 103.106 108.276 103.347C108.276 103.588 108.333 103.807 108.444 104.003C108.558 104.2 108.716 104.352 108.913 104.463C109.112 104.574 109.334 104.628 109.578 104.628C109.822 104.628 110.044 104.574 110.24 104.463Z" fill="white"/>
<path d="M112.205 101.794H112.528V104.361L114.508 101.794H114.803V104.891H114.48V102.33L112.499 104.891H112.205V101.794ZM112.972 101.417C112.842 101.318 112.778 101.176 112.775 100.998H113.019C113.019 101.116 113.067 101.211 113.152 101.277C113.238 101.347 113.355 101.379 113.494 101.379C113.634 101.379 113.751 101.347 113.837 101.277C113.925 101.211 113.97 101.119 113.973 100.998H114.217C114.217 101.179 114.147 101.318 114.017 101.417C113.887 101.515 113.713 101.569 113.498 101.569C113.282 101.569 113.101 101.518 112.975 101.417" fill="white"/>
<path d="M118.478 103.471H117.769V104.891H117.449V101.794H117.769V103.182H118.478L119.524 101.794H119.879L118.726 103.3L119.942 104.891H119.568L118.478 103.471Z" fill="white"/>
<path d="M121.191 104.71C120.94 104.571 120.747 104.384 120.608 104.146C120.465 103.908 120.395 103.639 120.395 103.341C120.395 103.043 120.465 102.773 120.608 102.536C120.75 102.298 120.943 102.108 121.191 101.971C121.441 101.835 121.717 101.765 122.024 101.765C122.331 101.765 122.604 101.835 122.851 101.971C123.098 102.108 123.291 102.295 123.431 102.536C123.573 102.777 123.643 103.046 123.643 103.344C123.643 103.642 123.57 103.911 123.431 104.152C123.288 104.393 123.095 104.58 122.851 104.716C122.604 104.853 122.328 104.922 122.024 104.922C121.72 104.922 121.441 104.853 121.191 104.716M122.686 104.463C122.886 104.352 123.038 104.197 123.149 104.003C123.26 103.807 123.317 103.588 123.317 103.347C123.317 103.106 123.26 102.887 123.149 102.691C123.038 102.494 122.879 102.342 122.686 102.231C122.486 102.12 122.268 102.066 122.024 102.066C121.78 102.066 121.558 102.12 121.358 102.231C121.159 102.342 121.004 102.498 120.89 102.691C120.775 102.887 120.722 103.106 120.722 103.347C120.722 103.588 120.779 103.807 120.89 104.003C121.004 104.2 121.162 104.352 121.358 104.463C121.558 104.574 121.78 104.628 122.024 104.628C122.268 104.628 122.49 104.574 122.686 104.463Z" fill="white"/>
<path d="M127.863 101.794V104.891H127.55V102.415L126.333 104.498H126.178L124.964 102.428V104.891H124.647V101.794H124.92L126.263 104.092L127.594 101.794H127.863Z" fill="white"/>
<path d="M131.735 101.794V104.891H131.412V102.079H129.451V104.891H129.131V101.794H131.735Z" fill="white"/>
<path d="M135.376 101.794V104.891H135.053V102.076H133.56L133.525 103.112C133.51 103.54 133.478 103.883 133.421 104.146C133.367 104.409 133.281 104.602 133.171 104.729C133.06 104.859 132.908 104.922 132.724 104.922C132.645 104.922 132.562 104.913 132.477 104.891L132.505 104.599C132.556 104.612 132.603 104.618 132.651 104.618C132.781 104.618 132.885 104.567 132.968 104.466C133.05 104.365 133.11 104.203 133.152 103.987C133.193 103.772 133.221 103.483 133.237 103.125L133.281 101.797H135.382L135.376 101.794Z" fill="white"/>
<path d="M138.833 104.609V104.891H136.64V101.794H138.766V102.079H136.97V103.182H138.573V103.458H136.97V104.609H138.833Z" fill="white"/>
<path d="M140.803 103.471H140.097V104.891H139.777V101.794H140.097V103.182H140.803L141.852 101.794H142.204L141.057 103.3L142.274 104.891H141.896L140.803 103.471Z" fill="white"/>
<path d="M143.519 104.713C143.272 104.577 143.078 104.39 142.939 104.149C142.796 103.908 142.727 103.639 142.727 103.341C142.727 103.043 142.796 102.773 142.939 102.532C143.078 102.292 143.275 102.105 143.519 101.968C143.766 101.832 144.042 101.762 144.349 101.762C144.577 101.762 144.792 101.8 144.986 101.876C145.182 101.952 145.344 102.067 145.48 102.212L145.271 102.422C145.03 102.177 144.723 102.054 144.355 102.054C144.111 102.054 143.889 102.111 143.687 102.222C143.484 102.333 143.329 102.488 143.218 102.681C143.104 102.878 143.047 103.093 143.047 103.334C143.047 103.575 143.104 103.794 143.218 103.987C143.332 104.184 143.49 104.333 143.687 104.447C143.889 104.558 144.108 104.615 144.355 104.615C144.726 104.615 145.033 104.491 145.271 104.244L145.48 104.453C145.344 104.602 145.179 104.713 144.983 104.789C144.786 104.868 144.574 104.907 144.343 104.907C144.035 104.907 143.76 104.84 143.516 104.701L143.519 104.713Z" fill="white"/>
<path d="M93.964 101.607H93.6725V105.747H93.964V101.607Z" fill="white"/>
<path d="M44.1906 102.076H43.1038V104.888H42.7774V102.076H41.6906V101.791H44.1906V102.076Z" fill="white"/>
<path d="M46.0061 103.816V104.884H45.6829V103.816L44.444 101.791H44.7926L45.854 103.528L46.9154 101.791H47.245L46.0061 103.816ZM44.8433 103.67H46.8299V103.918H44.8433V103.67Z" fill="white"/>
<path d="M50.0174 102.076C50.2392 102.266 50.3532 102.526 50.3532 102.853C50.3532 103.179 50.2423 103.442 50.0174 103.629C49.7956 103.816 49.4851 103.908 49.089 103.908H48.2589V104.884H47.9294V101.788H49.089C49.4851 101.788 49.7924 101.88 50.0174 102.07M49.7829 103.417C49.9445 103.284 50.0269 103.093 50.0269 102.846C50.0269 102.599 49.9445 102.402 49.7829 102.266C49.6213 102.133 49.3868 102.063 49.0795 102.063H48.2557V103.613H49.0795C49.3868 103.613 49.6213 103.547 49.7829 103.41" fill="white"/>
<path d="M51.7125 102.076V103.325H53.0496V103.575H51.7188V104.888H51.3957V103.575H50.9204V103.325H51.3957V101.791H53.3633V102.076H51.7125Z" fill="white"/>
<path d="M56.3321 103.144C56.5254 103.309 56.6204 103.55 56.6204 103.87C56.6204 104.19 56.5191 104.456 56.3131 104.631C56.1072 104.802 55.8125 104.891 55.4259 104.891H54.1966V101.794H54.5198V102.9H55.4925C55.8568 102.9 56.1357 102.986 56.3289 103.147M56.066 104.441C56.2149 104.314 56.2878 104.127 56.2878 103.88C56.2878 103.404 55.9963 103.17 55.4101 103.17H54.5134V104.634H55.4101C55.6953 104.634 55.9139 104.571 56.0628 104.444M57.1496 101.797H57.4728V104.894H57.1496V101.797Z" fill="white"/>
<path d="M61.3319 101.791V104.888H61.0088V103.461H59.0728V104.888H58.7465V101.791H59.0728V103.173H61.0088V101.791H61.3319Z" fill="white"/>
<path d="M65.0549 103.816V104.888H64.7317V103.816L63.496 101.791H63.8445L64.9028 103.531L65.9674 101.791H66.2938L65.0549 103.816Z" fill="white"/>
<path d="M67.0162 101.791H67.3394V104.358L69.3197 101.791H69.6143V104.888H69.2911V102.326L67.3108 104.888H67.0162V101.791ZM67.7829 101.414C67.653 101.315 67.5897 101.173 67.5865 100.995H67.8305C67.8305 101.112 67.878 101.208 67.9635 101.274C68.0491 101.344 68.1632 101.376 68.3057 101.376C68.4483 101.376 68.5624 101.344 68.6479 101.274C68.7366 101.208 68.781 101.116 68.7842 100.995H69.0281C69.0281 101.176 68.9584 101.315 68.8285 101.414C68.6986 101.512 68.5244 101.566 68.3089 101.566C68.0935 101.566 67.9128 101.515 67.7861 101.414" fill="white"/>
<path d="M73.2866 103.468H72.5768V104.888H72.26V101.791H72.5768V103.182H73.2866L74.3353 101.791H74.687L73.5369 103.296L74.7536 104.888H74.3765L73.2866 103.468Z" fill="white"/>
<path d="M77.6685 104.605V104.888H75.4791V101.791H77.602V102.076H75.8023V103.179H77.4056V103.455H75.8023V104.605H77.6685Z" fill="white"/>
<path d="M82.4086 101.791V104.888H78.6127V101.791H78.9359V104.605H80.3522V101.791H80.6754V104.605H82.0886V101.791H82.4086Z" fill="white"/>
<path d="M85.8622 104.605V104.888H83.6728V101.791H85.7957V102.076H83.9991V103.179H85.6024V103.455H83.9991V104.605H85.8622Z" fill="white"/>
<path d="M89.3982 101.791V104.888H89.0719V103.461H87.1359V104.888H86.8096V101.791H87.1359V103.173H89.0719V101.791H89.3982Z" fill="white"/>
<path d="M90.9824 101.791H90.6593V104.888H90.9824V101.791Z" fill="white"/>
</svg>
