<svg width="40" height="43" viewBox="0 0 40 43" fill="none" xmlns="http://www.w3.org/2000/svg">
<path d="M3.59131 18.3832C2.00372 18.3832 0.716733 19.6702 0.716733 21.2578C0.716733 22.8454 2.00372 24.1324 3.59131 24.1324V18.3832ZM38.4969 23.2904C39.6195 22.1679 39.6195 20.3478 38.4969 19.2252L20.2032 0.931494C19.0806 -0.191097 17.2605 -0.191097 16.1379 0.931494C15.0154 2.05408 15.0154 3.87417 16.1379 4.99676L32.399 21.2578L16.1379 37.5189C15.0154 38.6415 15.0154 40.4615 16.1379 41.5841C17.2605 42.7067 19.0806 42.7067 20.2032 41.5841L38.4969 23.2904ZM3.59131 24.1324H36.4643V18.3832H3.59131V24.1324Z" fill="white"/>
</svg>
